<?xml version="1.0" encoding="UTF-8" standalone="no"?>
<!DOCTYPE svg PUBLIC "-//W3C//DTD SVG 1.1//EN"
 "http://www.w3.org/Graphics/SVG/1.1/DTD/svg11.dtd">
<!-- Generated by graphviz version 13.1.0 (20250701.0955)
 -->
<!-- Title: interface/driver_mpu6050_interface.h Pages: 1 -->
<svg width="1334pt" height="200pt"
 viewBox="0.00 0.00 1334.00 200.00" xmlns="http://www.w3.org/2000/svg" xmlns:xlink="http://www.w3.org/1999/xlink">
<g id="graph0" class="graph" transform="scale(1 1) rotate(0) translate(4 196)">
<title>interface/driver_mpu6050_interface.h</title>
<!-- Node1 -->
<g id="Node000001" class="node">
<title>Node1</title>
<g id="a_Node000001"><a xlink:title="driver mpu6050 interface header file">
<polygon fill="#999999" stroke="#666666" points="760.12,-192 634.62,-192 634.62,-160 760.12,-160 760.12,-192"/>
<text xml:space="preserve" text-anchor="start" x="642.62" y="-178.5" font-family="Helvetica,sans-Serif" font-size="10.00">interface/driver_mpu6050</text>
<text xml:space="preserve" text-anchor="middle" x="697.38" y="-166.5" font-family="Helvetica,sans-Serif" font-size="10.00">_interface.h</text>
</a>
</g>
</g>
<!-- Node2 -->
<g id="Node000002" class="node">
<title>Node2</title>
<g id="a_Node000002"><a xlink:href="driver__mpu6050__basic_8h.html" target="_top" xlink:title="driver mpu6050 basic header file">
<polygon fill="white" stroke="#666666" points="124.75,-118 0,-118 0,-86 124.75,-86 124.75,-118"/>
<text xml:space="preserve" text-anchor="start" x="8" y="-104.5" font-family="Helvetica,sans-Serif" font-size="10.00">example/driver_mpu6050</text>
<text xml:space="preserve" text-anchor="middle" x="62.38" y="-92.5" font-family="Helvetica,sans-Serif" font-size="10.00">_basic.h</text>
</a>
</g>
</g>
<!-- Node1&#45;&gt;Node2 -->
<g id="edge1_Node000001_Node000002" class="edge">
<title>Node1&#45;&gt;Node2</title>
<g id="a_edge1_Node000001_Node000002"><a xlink:title=" ">
<path fill="none" stroke="#63b8ff" d="M622.9,-172.83C514.53,-168.65 307.43,-156.76 134.38,-124 126.57,-122.52 118.4,-120.56 110.47,-118.42"/>
<polygon fill="#63b8ff" stroke="#63b8ff" points="622.71,-176.33 632.83,-173.2 622.97,-169.33 622.71,-176.33"/>
</a>
</g>
</g>
<!-- Node4 -->
<g id="Node000004" class="node">
<title>Node4</title>
<g id="a_Node000004"><a xlink:href="driver__mpu6050__dmp_8h.html" target="_top" xlink:title="driver mpu6050 dmp header file">
<polygon fill="white" stroke="#666666" points="267.75,-118 143,-118 143,-86 267.75,-86 267.75,-118"/>
<text xml:space="preserve" text-anchor="start" x="151" y="-104.5" font-family="Helvetica,sans-Serif" font-size="10.00">example/driver_mpu6050</text>
<text xml:space="preserve" text-anchor="middle" x="205.38" y="-92.5" font-family="Helvetica,sans-Serif" font-size="10.00">_dmp.h</text>
</a>
</g>
</g>
<!-- Node1&#45;&gt;Node4 -->
<g id="edge3_Node000001_Node000004" class="edge">
<title>Node1&#45;&gt;Node4</title>
<g id="a_edge3_Node000001_Node000004"><a xlink:title=" ">
<path fill="none" stroke="#63b8ff" d="M622.97,-169.65C538.56,-162.73 397.07,-148.55 277.38,-124 269.85,-122.46 261.97,-120.51 254.3,-118.43"/>
<polygon fill="#63b8ff" stroke="#63b8ff" points="622.48,-173.12 632.73,-170.44 623.05,-166.15 622.48,-173.12"/>
</a>
</g>
</g>
<!-- Node6 -->
<g id="Node000006" class="node">
<title>Node6</title>
<g id="a_Node000006"><a xlink:href="driver__mpu6050__fifo_8h.html" target="_top" xlink:title="driver mpu6050 fifo header file">
<polygon fill="white" stroke="#666666" points="410.75,-118 286,-118 286,-86 410.75,-86 410.75,-118"/>
<text xml:space="preserve" text-anchor="start" x="294" y="-104.5" font-family="Helvetica,sans-Serif" font-size="10.00">example/driver_mpu6050</text>
<text xml:space="preserve" text-anchor="middle" x="348.38" y="-92.5" font-family="Helvetica,sans-Serif" font-size="10.00">_fifo.h</text>
</a>
</g>
</g>
<!-- Node1&#45;&gt;Node6 -->
<g id="edge5_Node000001_Node000006" class="edge">
<title>Node1&#45;&gt;Node6</title>
<g id="a_edge5_Node000001_Node000006"><a xlink:title=" ">
<path fill="none" stroke="#63b8ff" d="M623.03,-163.56C566.78,-154.38 487.8,-140.35 419.38,-124 412.5,-122.36 405.3,-120.45 398.23,-118.47"/>
<polygon fill="#63b8ff" stroke="#63b8ff" points="622.39,-167.01 632.83,-165.15 623.51,-160.1 622.39,-167.01"/>
</a>
</g>
</g>
<!-- Node8 -->
<g id="Node000008" class="node">
<title>Node8</title>
<g id="a_Node000008"><a xlink:href="driver__mpu6050__interface__template_8c.html" target="_top" xlink:title="driver mpu6050 interface template source file">
<polygon fill="white" stroke="#666666" points="554.12,-118 428.62,-118 428.62,-86 554.12,-86 554.12,-118"/>
<text xml:space="preserve" text-anchor="start" x="436.62" y="-104.5" font-family="Helvetica,sans-Serif" font-size="10.00">interface/driver_mpu6050</text>
<text xml:space="preserve" text-anchor="middle" x="491.38" y="-92.5" font-family="Helvetica,sans-Serif" font-size="10.00">_interface_template.c</text>
</a>
</g>
</g>
<!-- Node1&#45;&gt;Node8 -->
<g id="edge7_Node000001_Node000008" class="edge">
<title>Node1&#45;&gt;Node8</title>
<g id="a_edge7_Node000001_Node000008"><a xlink:title=" ">
<path fill="none" stroke="#63b8ff" d="M642.64,-155.87C609.14,-144.16 566.84,-129.38 535.49,-118.42"/>
<polygon fill="#63b8ff" stroke="#63b8ff" points="641.16,-159.06 651.75,-159.05 643.47,-152.45 641.16,-159.06"/>
</a>
</g>
</g>
<!-- Node9 -->
<g id="Node000009" class="node">
<title>Node9</title>
<g id="a_Node000009"><a xlink:href="driver__mpu6050__dmp__pedometer__test_8h.html" target="_top" xlink:title="driver mpu6050 dmp pedometer test header file">
<polygon fill="white" stroke="#666666" points="692.88,-118 571.88,-118 571.88,-86 692.88,-86 692.88,-118"/>
<text xml:space="preserve" text-anchor="start" x="579.88" y="-104.5" font-family="Helvetica,sans-Serif" font-size="10.00">test/driver_mpu6050</text>
<text xml:space="preserve" text-anchor="middle" x="632.38" y="-92.5" font-family="Helvetica,sans-Serif" font-size="10.00">_dmp_pedometer_test.h</text>
</a>
</g>
</g>
<!-- Node1&#45;&gt;Node9 -->
<g id="edge8_Node000001_Node000009" class="edge">
<title>Node1&#45;&gt;Node9</title>
<g id="a_edge8_Node000001_Node000009"><a xlink:title=" ">
<path fill="none" stroke="#63b8ff" d="M676.11,-151.44C666.26,-140.53 654.84,-127.88 646.14,-118.25"/>
<polygon fill="#63b8ff" stroke="#63b8ff" points="673.28,-153.53 682.58,-158.61 678.47,-148.84 673.28,-153.53"/>
</a>
</g>
</g>
<!-- Node11 -->
<g id="Node000011" class="node">
<title>Node11</title>
<g id="a_Node000011"><a xlink:href="driver__mpu6050__dmp__read__test_8h.html" target="_top" xlink:title="driver mpu6050 dmp read test header file">
<polygon fill="white" stroke="#666666" points="815.62,-118 711.12,-118 711.12,-86 815.62,-86 815.62,-118"/>
<text xml:space="preserve" text-anchor="start" x="719.12" y="-104.5" font-family="Helvetica,sans-Serif" font-size="10.00">test/driver_mpu6050</text>
<text xml:space="preserve" text-anchor="middle" x="763.38" y="-92.5" font-family="Helvetica,sans-Serif" font-size="10.00">_dmp_read_test.h</text>
</a>
</g>
</g>
<!-- Node1&#45;&gt;Node11 -->
<g id="edge10_Node000001_Node000011" class="edge">
<title>Node1&#45;&gt;Node11</title>
<g id="a_edge10_Node000001_Node000011"><a xlink:title=" ">
<path fill="none" stroke="#63b8ff" d="M718.97,-151.44C728.97,-140.53 740.56,-127.88 749.4,-118.25"/>
<polygon fill="#63b8ff" stroke="#63b8ff" points="716.57,-148.88 712.39,-158.61 721.73,-153.61 716.57,-148.88"/>
</a>
</g>
</g>
<!-- Node13 -->
<g id="Node000013" class="node">
<title>Node13</title>
<g id="a_Node000013"><a xlink:href="driver__mpu6050__dmp__tap__orient__motion__test_8h.html" target="_top" xlink:title="driver mpu6050 dmp tap orient motion test header file">
<polygon fill="white" stroke="#666666" points="956.62,-124 834.12,-124 834.12,-80 956.62,-80 956.62,-124"/>
<text xml:space="preserve" text-anchor="start" x="842.12" y="-110.5" font-family="Helvetica,sans-Serif" font-size="10.00">test/driver_mpu6050</text>
<text xml:space="preserve" text-anchor="start" x="842.12" y="-98.5" font-family="Helvetica,sans-Serif" font-size="10.00">_dmp_tap_orient_motion</text>
<text xml:space="preserve" text-anchor="middle" x="895.38" y="-86.5" font-family="Helvetica,sans-Serif" font-size="10.00">_test.h</text>
</a>
</g>
</g>
<!-- Node1&#45;&gt;Node13 -->
<g id="edge12_Node000001_Node000013" class="edge">
<title>Node1&#45;&gt;Node13</title>
<g id="a_edge12_Node000001_Node000013"><a xlink:title=" ">
<path fill="none" stroke="#63b8ff" d="M750.47,-155.69C776.99,-146.05 809.16,-134.35 836.45,-124.43"/>
<polygon fill="#63b8ff" stroke="#63b8ff" points="749.48,-152.33 741.27,-159.04 751.87,-158.91 749.48,-152.33"/>
</a>
</g>
</g>
<!-- Node15 -->
<g id="Node000015" class="node">
<title>Node15</title>
<g id="a_Node000015"><a xlink:href="driver__mpu6050__fifo__test_8h.html" target="_top" xlink:title="driver mpu6050 fifo test header file">
<polygon fill="white" stroke="#666666" points="1079.62,-118 975.12,-118 975.12,-86 1079.62,-86 1079.62,-118"/>
<text xml:space="preserve" text-anchor="start" x="983.12" y="-104.5" font-family="Helvetica,sans-Serif" font-size="10.00">test/driver_mpu6050</text>
<text xml:space="preserve" text-anchor="middle" x="1027.38" y="-92.5" font-family="Helvetica,sans-Serif" font-size="10.00">_fifo_test.h</text>
</a>
</g>
</g>
<!-- Node1&#45;&gt;Node15 -->
<g id="edge14_Node000001_Node000015" class="edge">
<title>Node1&#45;&gt;Node15</title>
<g id="a_edge14_Node000001_Node000015"><a xlink:title=" ">
<path fill="none" stroke="#63b8ff" d="M771.7,-163.7C825.83,-154.78 900.7,-141.02 965.38,-124 971.53,-122.38 977.96,-120.46 984.25,-118.46"/>
<polygon fill="#63b8ff" stroke="#63b8ff" points="771.27,-160.22 761.96,-165.28 772.4,-167.13 771.27,-160.22"/>
</a>
</g>
</g>
<!-- Node17 -->
<g id="Node000017" class="node">
<title>Node17</title>
<g id="a_Node000017"><a xlink:href="driver__mpu6050__read__test_8h.html" target="_top" xlink:title="driver mpu6050 read test header file">
<polygon fill="white" stroke="#666666" points="1202.62,-118 1098.12,-118 1098.12,-86 1202.62,-86 1202.62,-118"/>
<text xml:space="preserve" text-anchor="start" x="1106.12" y="-104.5" font-family="Helvetica,sans-Serif" font-size="10.00">test/driver_mpu6050</text>
<text xml:space="preserve" text-anchor="middle" x="1150.38" y="-92.5" font-family="Helvetica,sans-Serif" font-size="10.00">_read_test.h</text>
</a>
</g>
</g>
<!-- Node1&#45;&gt;Node17 -->
<g id="edge16_Node000001_Node000017" class="edge">
<title>Node1&#45;&gt;Node17</title>
<g id="a_edge16_Node000001_Node000017"><a xlink:title=" ">
<path fill="none" stroke="#63b8ff" d="M771.68,-169.69C850.91,-163.01 979.69,-149.23 1088.38,-124 1094.91,-122.48 1101.72,-120.55 1108.34,-118.47"/>
<polygon fill="#63b8ff" stroke="#63b8ff" points="771.54,-166.19 761.86,-170.5 772.12,-173.16 771.54,-166.19"/>
</a>
</g>
</g>
<!-- Node19 -->
<g id="Node000019" class="node">
<title>Node19</title>
<g id="a_Node000019"><a xlink:href="driver__mpu6050__register__test_8h.html" target="_top" xlink:title="driver mpu6050 register test header file">
<polygon fill="white" stroke="#666666" points="1325.62,-118 1221.12,-118 1221.12,-86 1325.62,-86 1325.62,-118"/>
<text xml:space="preserve" text-anchor="start" x="1229.12" y="-104.5" font-family="Helvetica,sans-Serif" font-size="10.00">test/driver_mpu6050</text>
<text xml:space="preserve" text-anchor="middle" x="1273.38" y="-92.5" font-family="Helvetica,sans-Serif" font-size="10.00">_register_test.h</text>
</a>
</g>
</g>
<!-- Node1&#45;&gt;Node19 -->
<g id="edge18_Node000001_Node000019" class="edge">
<title>Node1&#45;&gt;Node19</title>
<g id="a_edge18_Node000001_Node000019"><a xlink:title=" ">
<path fill="none" stroke="#63b8ff" d="M771.86,-172.92C872.58,-168.9 1057.35,-157.27 1211.38,-124 1218.15,-122.54 1225.22,-120.58 1232.05,-118.44"/>
<polygon fill="#63b8ff" stroke="#63b8ff" points="771.97,-169.41 762.11,-173.29 772.24,-176.4 771.97,-169.41"/>
</a>
</g>
</g>
<!-- Node3 -->
<g id="Node000003" class="node">
<title>Node3</title>
<g id="a_Node000003"><a xlink:href="driver__mpu6050__basic_8c.html" target="_top" xlink:title="driver mpu6050 basic source file">
<polygon fill="white" stroke="#666666" points="124.75,-38 0,-38 0,-6 124.75,-6 124.75,-38"/>
<text xml:space="preserve" text-anchor="start" x="8" y="-24.5" font-family="Helvetica,sans-Serif" font-size="10.00">example/driver_mpu6050</text>
<text xml:space="preserve" text-anchor="middle" x="62.38" y="-12.5" font-family="Helvetica,sans-Serif" font-size="10.00">_basic.c</text>
</a>
</g>
</g>
<!-- Node2&#45;&gt;Node3 -->
<g id="edge2_Node000002_Node000003" class="edge">
<title>Node2&#45;&gt;Node3</title>
<g id="a_edge2_Node000002_Node000003"><a xlink:title=" ">
<path fill="none" stroke="#63b8ff" d="M62.38,-74.37C62.38,-62.37 62.38,-48.63 62.38,-38.38"/>
<polygon fill="#63b8ff" stroke="#63b8ff" points="58.88,-74.08 62.38,-84.08 65.88,-74.08 58.88,-74.08"/>
</a>
</g>
</g>
<!-- Node5 -->
<g id="Node000005" class="node">
<title>Node5</title>
<g id="a_Node000005"><a xlink:href="driver__mpu6050__dmp_8c.html" target="_top" xlink:title="driver mpu6050 dmp source file">
<polygon fill="white" stroke="#666666" points="267.75,-38 143,-38 143,-6 267.75,-6 267.75,-38"/>
<text xml:space="preserve" text-anchor="start" x="151" y="-24.5" font-family="Helvetica,sans-Serif" font-size="10.00">example/driver_mpu6050</text>
<text xml:space="preserve" text-anchor="middle" x="205.38" y="-12.5" font-family="Helvetica,sans-Serif" font-size="10.00">_dmp.c</text>
</a>
</g>
</g>
<!-- Node4&#45;&gt;Node5 -->
<g id="edge4_Node000004_Node000005" class="edge">
<title>Node4&#45;&gt;Node5</title>
<g id="a_edge4_Node000004_Node000005"><a xlink:title=" ">
<path fill="none" stroke="#63b8ff" d="M205.38,-74.37C205.38,-62.37 205.38,-48.63 205.38,-38.38"/>
<polygon fill="#63b8ff" stroke="#63b8ff" points="201.88,-74.08 205.38,-84.08 208.88,-74.08 201.88,-74.08"/>
</a>
</g>
</g>
<!-- Node7 -->
<g id="Node000007" class="node">
<title>Node7</title>
<g id="a_Node000007"><a xlink:href="driver__mpu6050__fifo_8c.html" target="_top" xlink:title="driver mpu6050 fifo source file">
<polygon fill="white" stroke="#666666" points="410.75,-38 286,-38 286,-6 410.75,-6 410.75,-38"/>
<text xml:space="preserve" text-anchor="start" x="294" y="-24.5" font-family="Helvetica,sans-Serif" font-size="10.00">example/driver_mpu6050</text>
<text xml:space="preserve" text-anchor="middle" x="348.38" y="-12.5" font-family="Helvetica,sans-Serif" font-size="10.00">_fifo.c</text>
</a>
</g>
</g>
<!-- Node6&#45;&gt;Node7 -->
<g id="edge6_Node000006_Node000007" class="edge">
<title>Node6&#45;&gt;Node7</title>
<g id="a_edge6_Node000006_Node000007"><a xlink:title=" ">
<path fill="none" stroke="#63b8ff" d="M348.38,-74.37C348.38,-62.37 348.38,-48.63 348.38,-38.38"/>
<polygon fill="#63b8ff" stroke="#63b8ff" points="344.88,-74.08 348.38,-84.08 351.88,-74.08 344.88,-74.08"/>
</a>
</g>
</g>
<!-- Node10 -->
<g id="Node000010" class="node">
<title>Node10</title>
<g id="a_Node000010"><a xlink:href="driver__mpu6050__dmp__pedometer__test_8c.html" target="_top" xlink:title="driver mpu6050 dmp pedometer test source file">
<polygon fill="white" stroke="#666666" points="692.88,-38 571.88,-38 571.88,-6 692.88,-6 692.88,-38"/>
<text xml:space="preserve" text-anchor="start" x="579.88" y="-24.5" font-family="Helvetica,sans-Serif" font-size="10.00">test/driver_mpu6050</text>
<text xml:space="preserve" text-anchor="middle" x="632.38" y="-12.5" font-family="Helvetica,sans-Serif" font-size="10.00">_dmp_pedometer_test.c</text>
</a>
</g>
</g>
<!-- Node9&#45;&gt;Node10 -->
<g id="edge9_Node000009_Node000010" class="edge">
<title>Node9&#45;&gt;Node10</title>
<g id="a_edge9_Node000009_Node000010"><a xlink:title=" ">
<path fill="none" stroke="#63b8ff" d="M632.38,-74.37C632.38,-62.37 632.38,-48.63 632.38,-38.38"/>
<polygon fill="#63b8ff" stroke="#63b8ff" points="628.88,-74.08 632.38,-84.08 635.88,-74.08 628.88,-74.08"/>
</a>
</g>
</g>
<!-- Node12 -->
<g id="Node000012" class="node">
<title>Node12</title>
<g id="a_Node000012"><a xlink:href="driver__mpu6050__dmp__read__test_8c.html" target="_top" xlink:title="driver mpu6050 dmp read test source file">
<polygon fill="white" stroke="#666666" points="815.62,-38 711.12,-38 711.12,-6 815.62,-6 815.62,-38"/>
<text xml:space="preserve" text-anchor="start" x="719.12" y="-24.5" font-family="Helvetica,sans-Serif" font-size="10.00">test/driver_mpu6050</text>
<text xml:space="preserve" text-anchor="middle" x="763.38" y="-12.5" font-family="Helvetica,sans-Serif" font-size="10.00">_dmp_read_test.c</text>
</a>
</g>
</g>
<!-- Node11&#45;&gt;Node12 -->
<g id="edge11_Node000011_Node000012" class="edge">
<title>Node11&#45;&gt;Node12</title>
<g id="a_edge11_Node000011_Node000012"><a xlink:title=" ">
<path fill="none" stroke="#63b8ff" d="M763.38,-74.37C763.38,-62.37 763.38,-48.63 763.38,-38.38"/>
<polygon fill="#63b8ff" stroke="#63b8ff" points="759.88,-74.08 763.38,-84.08 766.88,-74.08 759.88,-74.08"/>
</a>
</g>
</g>
<!-- Node14 -->
<g id="Node000014" class="node">
<title>Node14</title>
<g id="a_Node000014"><a xlink:href="driver__mpu6050__dmp__tap__orient__motion__test_8c.html" target="_top" xlink:title="driver mpu6050 dmp tap orient motion test source file">
<polygon fill="white" stroke="#666666" points="956.62,-44 834.12,-44 834.12,0 956.62,0 956.62,-44"/>
<text xml:space="preserve" text-anchor="start" x="842.12" y="-30.5" font-family="Helvetica,sans-Serif" font-size="10.00">test/driver_mpu6050</text>
<text xml:space="preserve" text-anchor="start" x="842.12" y="-18.5" font-family="Helvetica,sans-Serif" font-size="10.00">_dmp_tap_orient_motion</text>
<text xml:space="preserve" text-anchor="middle" x="895.38" y="-6.5" font-family="Helvetica,sans-Serif" font-size="10.00">_test.c</text>
</a>
</g>
</g>
<!-- Node13&#45;&gt;Node14 -->
<g id="edge13_Node000013_Node000014" class="edge">
<title>Node13&#45;&gt;Node14</title>
<g id="a_edge13_Node000013_Node000014"><a xlink:title=" ">
<path fill="none" stroke="#63b8ff" d="M895.38,-68.25C895.38,-60.15 895.38,-51.68 895.38,-44.29"/>
<polygon fill="#63b8ff" stroke="#63b8ff" points="891.88,-68.17 895.38,-78.17 898.88,-68.17 891.88,-68.17"/>
</a>
</g>
</g>
<!-- Node16 -->
<g id="Node000016" class="node">
<title>Node16</title>
<g id="a_Node000016"><a xlink:href="driver__mpu6050__fifo__test_8c.html" target="_top" xlink:title="driver mpu6050 fifo test source file">
<polygon fill="white" stroke="#666666" points="1079.62,-38 975.12,-38 975.12,-6 1079.62,-6 1079.62,-38"/>
<text xml:space="preserve" text-anchor="start" x="983.12" y="-24.5" font-family="Helvetica,sans-Serif" font-size="10.00">test/driver_mpu6050</text>
<text xml:space="preserve" text-anchor="middle" x="1027.38" y="-12.5" font-family="Helvetica,sans-Serif" font-size="10.00">_fifo_test.c</text>
</a>
</g>
</g>
<!-- Node15&#45;&gt;Node16 -->
<g id="edge15_Node000015_Node000016" class="edge">
<title>Node15&#45;&gt;Node16</title>
<g id="a_edge15_Node000015_Node000016"><a xlink:title=" ">
<path fill="none" stroke="#63b8ff" d="M1027.38,-74.37C1027.38,-62.37 1027.38,-48.63 1027.38,-38.38"/>
<polygon fill="#63b8ff" stroke="#63b8ff" points="1023.88,-74.08 1027.38,-84.08 1030.88,-74.08 1023.88,-74.08"/>
</a>
</g>
</g>
<!-- Node18 -->
<g id="Node000018" class="node">
<title>Node18</title>
<g id="a_Node000018"><a xlink:href="driver__mpu6050__read__test_8c.html" target="_top" xlink:title="driver mpu6050 read test source file">
<polygon fill="white" stroke="#666666" points="1202.62,-38 1098.12,-38 1098.12,-6 1202.62,-6 1202.62,-38"/>
<text xml:space="preserve" text-anchor="start" x="1106.12" y="-24.5" font-family="Helvetica,sans-Serif" font-size="10.00">test/driver_mpu6050</text>
<text xml:space="preserve" text-anchor="middle" x="1150.38" y="-12.5" font-family="Helvetica,sans-Serif" font-size="10.00">_read_test.c</text>
</a>
</g>
</g>
<!-- Node17&#45;&gt;Node18 -->
<g id="edge17_Node000017_Node000018" class="edge">
<title>Node17&#45;&gt;Node18</title>
<g id="a_edge17_Node000017_Node000018"><a xlink:title=" ">
<path fill="none" stroke="#63b8ff" d="M1150.38,-74.37C1150.38,-62.37 1150.38,-48.63 1150.38,-38.38"/>
<polygon fill="#63b8ff" stroke="#63b8ff" points="1146.88,-74.08 1150.38,-84.08 1153.88,-74.08 1146.88,-74.08"/>
</a>
</g>
</g>
<!-- Node20 -->
<g id="Node000020" class="node">
<title>Node20</title>
<g id="a_Node000020"><a xlink:href="driver__mpu6050__register__test_8c.html" target="_top" xlink:title="driver mpu6050 register test source file">
<polygon fill="white" stroke="#666666" points="1325.62,-38 1221.12,-38 1221.12,-6 1325.62,-6 1325.62,-38"/>
<text xml:space="preserve" text-anchor="start" x="1229.12" y="-24.5" font-family="Helvetica,sans-Serif" font-size="10.00">test/driver_mpu6050</text>
<text xml:space="preserve" text-anchor="middle" x="1273.38" y="-12.5" font-family="Helvetica,sans-Serif" font-size="10.00">_register_test.c</text>
</a>
</g>
</g>
<!-- Node19&#45;&gt;Node20 -->
<g id="edge19_Node000019_Node000020" class="edge">
<title>Node19&#45;&gt;Node20</title>
<g id="a_edge19_Node000019_Node000020"><a xlink:title=" ">
<path fill="none" stroke="#63b8ff" d="M1273.38,-74.37C1273.38,-62.37 1273.38,-48.63 1273.38,-38.38"/>
<polygon fill="#63b8ff" stroke="#63b8ff" points="1269.88,-74.08 1273.38,-84.08 1276.88,-74.08 1269.88,-74.08"/>
</a>
</g>
</g>
</g>
</svg>
