<?xml version="1.0" encoding="UTF-8" standalone="no"?>
<!DOCTYPE svg PUBLIC "-//W3C//DTD SVG 1.1//EN"
 "http://www.w3.org/Graphics/SVG/1.1/DTD/svg11.dtd">
<!-- Generated by graphviz version 13.1.0 (20250701.0955)
 -->
<!-- Title: src/driver_mpu6050.c Pages: 1 -->
<svg width="368pt" height="140pt"
 viewBox="0.00 0.00 368.00 140.00" xmlns="http://www.w3.org/2000/svg" xmlns:xlink="http://www.w3.org/1999/xlink">
<g id="graph0" class="graph" transform="scale(1 1) rotate(0) translate(4 136)">
<title>src/driver_mpu6050.c</title>
<!-- Node1 -->
<g id="Node000001" class="node">
<title>Node1</title>
<g id="a_Node000001"><a xlink:title="driver mpu6050 source file">
<polygon fill="#999999" stroke="#666666" points="275.5,-132 165.75,-132 165.75,-112 275.5,-112 275.5,-132"/>
<text xml:space="preserve" text-anchor="middle" x="220.62" y="-118.5" font-family="Helvetica,sans-Serif" font-size="10.00">src/driver_mpu6050.c</text>
</a>
</g>
</g>
<!-- Node2 -->
<g id="Node000002" class="node">
<title>Node2</title>
<g id="a_Node000002"><a xlink:href="driver__mpu6050_8h.html" target="_top" xlink:title="driver mpu6050 header file">
<polygon fill="white" stroke="#666666" points="93.25,-76 0,-76 0,-56 93.25,-56 93.25,-76"/>
<text xml:space="preserve" text-anchor="middle" x="46.62" y="-62.5" font-family="Helvetica,sans-Serif" font-size="10.00">driver_mpu6050.h</text>
</a>
</g>
</g>
<!-- Node1&#45;&gt;Node2 -->
<g id="edge1_Node000001_Node000002" class="edge">
<title>Node1&#45;&gt;Node2</title>
<g id="a_edge1_Node000001_Node000002"><a xlink:title=" ">
<path fill="none" stroke="#63b8ff" d="M190.32,-111.59C161.92,-102.78 119.26,-89.54 87.79,-79.78"/>
<polygon fill="#63b8ff" stroke="#63b8ff" points="89.2,-76.55 78.62,-76.93 87.13,-83.23 89.2,-76.55"/>
</a>
</g>
</g>
<!-- Node6 -->
<g id="Node000006" class="node">
<title>Node6</title>
<g id="a_Node000006"><a xlink:href="driver__mpu6050__code_8h.html" target="_top" xlink:title="driver mpu6050 code header file">
<polygon fill="white" stroke="#666666" points="230.38,-76 110.88,-76 110.88,-56 230.38,-56 230.38,-76"/>
<text xml:space="preserve" text-anchor="middle" x="170.62" y="-62.5" font-family="Helvetica,sans-Serif" font-size="10.00">driver_mpu6050_code.h</text>
</a>
</g>
</g>
<!-- Node1&#45;&gt;Node6 -->
<g id="edge5_Node000001_Node000006" class="edge">
<title>Node1&#45;&gt;Node6</title>
<g id="a_edge5_Node000001_Node000006"><a xlink:title=" ">
<path fill="none" stroke="#63b8ff" d="M211.92,-111.59C205.03,-104.16 195.23,-93.58 186.91,-84.58"/>
<polygon fill="#63b8ff" stroke="#63b8ff" points="189.63,-82.37 180.26,-77.41 184.49,-87.12 189.63,-82.37"/>
</a>
</g>
</g>
<!-- Node7 -->
<g id="Node000007" class="node">
<title>Node7</title>
<g id="a_Node000007"><a xlink:title=" ">
<polygon fill="#e0e0e0" stroke="#999999" points="294.62,-76 248.62,-76 248.62,-56 294.62,-56 294.62,-76"/>
<text xml:space="preserve" text-anchor="middle" x="271.62" y="-62.5" font-family="Helvetica,sans-Serif" font-size="10.00">math.h</text>
</a>
</g>
</g>
<!-- Node1&#45;&gt;Node7 -->
<g id="edge9_Node000001_Node000007" class="edge">
<title>Node1&#45;&gt;Node7</title>
<g id="a_edge9_Node000001_Node000007"><a xlink:title=" ">
<path fill="none" stroke="#63b8ff" d="M229.51,-111.59C236.53,-104.16 246.53,-93.58 255.02,-84.58"/>
<polygon fill="#63b8ff" stroke="#63b8ff" points="257.48,-87.07 261.8,-77.4 252.39,-82.27 257.48,-87.07"/>
</a>
</g>
</g>
<!-- Node8 -->
<g id="Node000008" class="node">
<title>Node8</title>
<g id="a_Node000008"><a xlink:title=" ">
<polygon fill="#e0e0e0" stroke="#999999" points="360.38,-76 312.88,-76 312.88,-56 360.38,-56 360.38,-76"/>
<text xml:space="preserve" text-anchor="middle" x="336.62" y="-62.5" font-family="Helvetica,sans-Serif" font-size="10.00">stdlib.h</text>
</a>
</g>
</g>
<!-- Node1&#45;&gt;Node8 -->
<g id="edge10_Node000001_Node000008" class="edge">
<title>Node1&#45;&gt;Node8</title>
<g id="a_edge10_Node000001_Node000008"><a xlink:title=" ">
<path fill="none" stroke="#63b8ff" d="M240.83,-111.59C258.85,-103.21 285.49,-90.8 306.11,-81.21"/>
<polygon fill="#63b8ff" stroke="#63b8ff" points="307.3,-84.51 314.89,-77.12 304.35,-78.17 307.3,-84.51"/>
</a>
</g>
</g>
<!-- Node3 -->
<g id="Node000003" class="node">
<title>Node3</title>
<g id="a_Node000003"><a xlink:title=" ">
<polygon fill="#e0e0e0" stroke="#999999" points="66.25,-20 21,-20 21,0 66.25,0 66.25,-20"/>
<text xml:space="preserve" text-anchor="middle" x="43.62" y="-6.5" font-family="Helvetica,sans-Serif" font-size="10.00">stdio.h</text>
</a>
</g>
</g>
<!-- Node2&#45;&gt;Node3 -->
<g id="edge2_Node000002_Node000003" class="edge">
<title>Node2&#45;&gt;Node3</title>
<g id="a_edge2_Node000002_Node000003"><a xlink:title=" ">
<path fill="none" stroke="#63b8ff" d="M46.1,-55.59C45.74,-49.01 45.23,-39.96 44.78,-31.73"/>
<polygon fill="#63b8ff" stroke="#63b8ff" points="48.27,-31.6 44.23,-21.81 41.29,-31.99 48.27,-31.6"/>
</a>
</g>
</g>
<!-- Node4 -->
<g id="Node000004" class="node">
<title>Node4</title>
<g id="a_Node000004"><a xlink:title=" ">
<polygon fill="#e0e0e0" stroke="#999999" points="132.75,-20 84.5,-20 84.5,0 132.75,0 132.75,-20"/>
<text xml:space="preserve" text-anchor="middle" x="108.62" y="-6.5" font-family="Helvetica,sans-Serif" font-size="10.00">stdint.h</text>
</a>
</g>
</g>
<!-- Node2&#45;&gt;Node4 -->
<g id="edge3_Node000002_Node000004" class="edge">
<title>Node2&#45;&gt;Node4</title>
<g id="a_edge3_Node000002_Node000004"><a xlink:title=" ">
<path fill="none" stroke="#63b8ff" d="M57.42,-55.59C66.23,-47.93 78.88,-36.91 89.4,-27.75"/>
<polygon fill="#63b8ff" stroke="#63b8ff" points="91.57,-30.5 96.81,-21.29 86.97,-25.22 91.57,-30.5"/>
</a>
</g>
</g>
<!-- Node5 -->
<g id="Node000005" class="node">
<title>Node5</title>
<g id="a_Node000005"><a xlink:title=" ">
<polygon fill="#e0e0e0" stroke="#999999" points="198.75,-20 150.5,-20 150.5,0 198.75,0 198.75,-20"/>
<text xml:space="preserve" text-anchor="middle" x="174.62" y="-6.5" font-family="Helvetica,sans-Serif" font-size="10.00">string.h</text>
</a>
</g>
</g>
<!-- Node2&#45;&gt;Node5 -->
<g id="edge4_Node000002_Node000005" class="edge">
<title>Node2&#45;&gt;Node5</title>
<g id="a_edge4_Node000002_Node000005"><a xlink:title=" ">
<path fill="none" stroke="#63b8ff" d="M68.92,-55.59C88.99,-47.13 118.74,-34.58 141.58,-24.94"/>
<polygon fill="#63b8ff" stroke="#63b8ff" points="142.91,-28.18 150.76,-21.07 140.19,-21.73 142.91,-28.18"/>
</a>
</g>
</g>
<!-- Node6&#45;&gt;Node3 -->
<g id="edge6_Node000006_Node000003" class="edge">
<title>Node6&#45;&gt;Node3</title>
<g id="a_edge6_Node000006_Node000003"><a xlink:title=" ">
<path fill="none" stroke="#63b8ff" d="M148.5,-55.59C128.59,-47.13 99.07,-34.58 76.42,-24.94"/>
<polygon fill="#63b8ff" stroke="#63b8ff" points="77.88,-21.76 67.31,-21.07 75.15,-28.21 77.88,-21.76"/>
</a>
</g>
</g>
<!-- Node6&#45;&gt;Node4 -->
<g id="edge7_Node000006_Node000004" class="edge">
<title>Node6&#45;&gt;Node4</title>
<g id="a_edge7_Node000006_Node000004"><a xlink:title=" ">
<path fill="none" stroke="#63b8ff" d="M159.83,-55.59C151.02,-47.93 138.37,-36.91 127.85,-27.75"/>
<polygon fill="#63b8ff" stroke="#63b8ff" points="130.28,-25.22 120.44,-21.29 125.68,-30.5 130.28,-25.22"/>
</a>
</g>
</g>
<!-- Node6&#45;&gt;Node5 -->
<g id="edge8_Node000006_Node000005" class="edge">
<title>Node6&#45;&gt;Node5</title>
<g id="a_edge8_Node000006_Node000005"><a xlink:title=" ">
<path fill="none" stroke="#63b8ff" d="M171.32,-55.59C171.81,-49.01 172.48,-39.96 173.09,-31.73"/>
<polygon fill="#63b8ff" stroke="#63b8ff" points="176.58,-32.04 173.82,-21.81 169.6,-31.52 176.58,-32.04"/>
</a>
</g>
</g>
</g>
</svg>
