<?xml version="1.0" encoding="UTF-8" standalone="no"?>
<!DOCTYPE svg PUBLIC "-//W3C//DTD SVG 1.1//EN"
 "http://www.w3.org/Graphics/SVG/1.1/DTD/svg11.dtd">
<!-- Generated by graphviz version 13.1.0 (20250701.0955)
 -->
<!-- Title: src/driver_mpu6050.h Pages: 1 -->
<svg width="186pt" height="84pt"
 viewBox="0.00 0.00 186.00 84.00" xmlns="http://www.w3.org/2000/svg" xmlns:xlink="http://www.w3.org/1999/xlink">
<g id="graph0" class="graph" transform="scale(1 1) rotate(0) translate(4 80)">
<title>src/driver_mpu6050.h</title>
<!-- Node1 -->
<g id="Node000001" class="node">
<title>Node1</title>
<g id="a_Node000001"><a xlink:title="driver mpu6050 header file">
<polygon fill="#999999" stroke="#666666" points="142.5,-76 32.75,-76 32.75,-56 142.5,-56 142.5,-76"/>
<text xml:space="preserve" text-anchor="middle" x="87.62" y="-62.5" font-family="Helvetica,sans-Serif" font-size="10.00">src/driver_mpu6050.h</text>
</a>
</g>
</g>
<!-- Node2 -->
<g id="Node000002" class="node">
<title>Node2</title>
<g id="a_Node000002"><a xlink:title=" ">
<polygon fill="#e0e0e0" stroke="#999999" points="45.25,-20 0,-20 0,0 45.25,0 45.25,-20"/>
<text xml:space="preserve" text-anchor="middle" x="22.62" y="-6.5" font-family="Helvetica,sans-Serif" font-size="10.00">stdio.h</text>
</a>
</g>
</g>
<!-- Node1&#45;&gt;Node2 -->
<g id="edge1_Node000001_Node000002" class="edge">
<title>Node1&#45;&gt;Node2</title>
<g id="a_edge1_Node000001_Node000002"><a xlink:title=" ">
<path fill="none" stroke="#63b8ff" d="M76.3,-55.59C66.98,-47.85 53.55,-36.69 42.45,-27.47"/>
<polygon fill="#63b8ff" stroke="#63b8ff" points="44.91,-24.96 34.98,-21.27 40.44,-30.35 44.91,-24.96"/>
</a>
</g>
</g>
<!-- Node3 -->
<g id="Node000003" class="node">
<title>Node3</title>
<g id="a_Node000003"><a xlink:title=" ">
<polygon fill="#e0e0e0" stroke="#999999" points="111.75,-20 63.5,-20 63.5,0 111.75,0 111.75,-20"/>
<text xml:space="preserve" text-anchor="middle" x="87.62" y="-6.5" font-family="Helvetica,sans-Serif" font-size="10.00">stdint.h</text>
</a>
</g>
</g>
<!-- Node1&#45;&gt;Node3 -->
<g id="edge2_Node000001_Node000003" class="edge">
<title>Node1&#45;&gt;Node3</title>
<g id="a_edge2_Node000001_Node000003"><a xlink:title=" ">
<path fill="none" stroke="#63b8ff" d="M87.62,-55.59C87.62,-49.01 87.62,-39.96 87.62,-31.73"/>
<polygon fill="#63b8ff" stroke="#63b8ff" points="91.13,-31.81 87.63,-21.81 84.13,-31.81 91.13,-31.81"/>
</a>
</g>
</g>
<!-- Node4 -->
<g id="Node000004" class="node">
<title>Node4</title>
<g id="a_Node000004"><a xlink:title=" ">
<polygon fill="#e0e0e0" stroke="#999999" points="177.75,-20 129.5,-20 129.5,0 177.75,0 177.75,-20"/>
<text xml:space="preserve" text-anchor="middle" x="153.62" y="-6.5" font-family="Helvetica,sans-Serif" font-size="10.00">string.h</text>
</a>
</g>
</g>
<!-- Node1&#45;&gt;Node4 -->
<g id="edge3_Node000001_Node000004" class="edge">
<title>Node1&#45;&gt;Node4</title>
<g id="a_edge3_Node000001_Node000004"><a xlink:title=" ">
<path fill="none" stroke="#63b8ff" d="M99.12,-55.59C108.59,-47.85 122.23,-36.69 133.5,-27.47"/>
<polygon fill="#63b8ff" stroke="#63b8ff" points="135.57,-30.3 141.09,-21.26 131.13,-24.88 135.57,-30.3"/>
</a>
</g>
</g>
</g>
</svg>
