<?xml version="1.0" encoding="UTF-8" standalone="no"?>
<!DOCTYPE svg PUBLIC "-//W3C//DTD SVG 1.1//EN"
 "http://www.w3.org/Graphics/SVG/1.1/DTD/svg11.dtd">
<!-- Generated by graphviz version 13.1.0 (20250701.0955)
 -->
<!-- Title: mpu6050 driver function Pages: 1 -->
<svg width="288pt" height="340pt"
 viewBox="0.00 0.00 288.00 340.00" xmlns="http://www.w3.org/2000/svg" xmlns:xlink="http://www.w3.org/1999/xlink">
<g id="graph0" class="graph" transform="scale(1 1) rotate(0) translate(4 336)">
<title>mpu6050 driver function</title>
<!-- Node3 -->
<g id="Node000003" class="node">
<title>Node3</title>
<g id="a_Node000003"><a xlink:href="group__mpu6050__basic__driver.html" target="_top" xlink:title="mpu6050 basic driver modules">
<polygon fill="white" stroke="#666666" points="272.38,-332 163.38,-332 163.38,-300 272.38,-300 272.38,-332"/>
<text xml:space="preserve" text-anchor="start" x="171.38" y="-318.5" font-family="Helvetica,sans-Serif" font-size="10.00">mpu6050 basic driver</text>
<text xml:space="preserve" text-anchor="middle" x="217.88" y="-306.5" font-family="Helvetica,sans-Serif" font-size="10.00"> function</text>
</a>
</g>
</g>
<!-- Node4 -->
<g id="Node000004" class="node">
<title>Node4</title>
<g id="a_Node000004"><a xlink:href="group__mpu6050__dmp__driver.html" target="_top" xlink:title="mpu6050 dmp driver modules">
<polygon fill="white" stroke="#666666" points="270.12,-282 165.62,-282 165.62,-250 270.12,-250 270.12,-282"/>
<text xml:space="preserve" text-anchor="start" x="173.62" y="-268.5" font-family="Helvetica,sans-Serif" font-size="10.00">mpu6050 dmp driver</text>
<text xml:space="preserve" text-anchor="middle" x="217.88" y="-256.5" font-family="Helvetica,sans-Serif" font-size="10.00"> function</text>
</a>
</g>
</g>
<!-- Node1 -->
<g id="Node000001" class="node">
<title>Node1</title>
<g id="a_Node000001"><a xlink:title="mpu6050 driver modules">
<polygon fill="#999999" stroke="#666666" points="120.25,-176 0,-176 0,-156 120.25,-156 120.25,-176"/>
<text xml:space="preserve" text-anchor="middle" x="60.12" y="-162.5" font-family="Helvetica,sans-Serif" font-size="10.00">mpu6050 driver function</text>
</a>
</g>
</g>
<!-- Node1&#45;&gt;Node3 -->
<g id="edge2" class="edge">
<title>Node1&#45;&gt;Node3</title>
<path fill="none" stroke="black" d="M71.87,-186.11C87.28,-213.27 118.06,-261.63 156.25,-291 160.4,-294.19 165.02,-297.05 169.8,-299.58"/>
<polygon fill="black" stroke="black" points="75.03,-184.59 67.13,-177.53 68.9,-187.97 75.03,-184.59"/>
</g>
<!-- Node1&#45;&gt;Node4 -->
<g id="edge3" class="edge">
<title>Node1&#45;&gt;Node4</title>
<path fill="none" stroke="black" d="M80.48,-183.9C98.92,-200.3 127.99,-224.46 156.25,-241 161.46,-244.05 167.11,-246.9 172.79,-249.52"/>
<polygon fill="black" stroke="black" points="82.98,-181.45 73.22,-177.35 78.29,-186.65 82.98,-181.45"/>
</g>
<!-- Node7 -->
<g id="Node000007" class="node">
<title>Node7</title>
<g id="a_Node000007"><a xlink:href="group__mpu6050__example__driver.html" target="_top" xlink:title="mpu6050 example driver modules">
<polygon fill="white" stroke="#666666" points="279.12,-232 156.62,-232 156.62,-200 279.12,-200 279.12,-232"/>
<text xml:space="preserve" text-anchor="start" x="164.62" y="-218.5" font-family="Helvetica,sans-Serif" font-size="10.00">mpu6050 example driver</text>
<text xml:space="preserve" text-anchor="middle" x="217.88" y="-206.5" font-family="Helvetica,sans-Serif" font-size="10.00"> function</text>
</a>
</g>
</g>
<!-- Node1&#45;&gt;Node7 -->
<g id="edge6" class="edge">
<title>Node1&#45;&gt;Node7</title>
<path fill="none" stroke="black" d="M104.49,-179.92C123.44,-186 145.8,-193.18 165.57,-199.53"/>
<polygon fill="black" stroke="black" points="105.81,-176.67 95.22,-176.94 103.67,-183.33 105.81,-176.67"/>
</g>
<!-- Node5 -->
<g id="Node000005" class="node">
<title>Node5</title>
<g id="a_Node000005"><a xlink:href="group__mpu6050__extern__driver.html" target="_top" xlink:title="mpu6050 extern driver modules">
<polygon fill="white" stroke="#666666" points="274.25,-182 161.5,-182 161.5,-150 274.25,-150 274.25,-182"/>
<text xml:space="preserve" text-anchor="start" x="169.5" y="-168.5" font-family="Helvetica,sans-Serif" font-size="10.00">mpu6050 extern driver</text>
<text xml:space="preserve" text-anchor="middle" x="217.88" y="-156.5" font-family="Helvetica,sans-Serif" font-size="10.00"> function</text>
</a>
</g>
</g>
<!-- Node1&#45;&gt;Node5 -->
<g id="edge4" class="edge">
<title>Node1&#45;&gt;Node5</title>
<path fill="none" stroke="black" d="M131.84,-166C141.63,-166 151.58,-166 161.05,-166"/>
<polygon fill="black" stroke="black" points="131.97,-162.5 121.97,-166 131.97,-169.5 131.97,-162.5"/>
</g>
<!-- Node6 -->
<g id="Node000006" class="node">
<title>Node6</title>
<g id="a_Node000006"><a xlink:href="group__mpu6050__interface__driver.html" target="_top" xlink:title="mpu6050 interface driver modules">
<polygon fill="white" stroke="#666666" points="279.5,-132 156.25,-132 156.25,-100 279.5,-100 279.5,-132"/>
<text xml:space="preserve" text-anchor="start" x="164.25" y="-118.5" font-family="Helvetica,sans-Serif" font-size="10.00">mpu6050 interface driver</text>
<text xml:space="preserve" text-anchor="middle" x="217.88" y="-106.5" font-family="Helvetica,sans-Serif" font-size="10.00"> function</text>
</a>
</g>
</g>
<!-- Node1&#45;&gt;Node6 -->
<g id="edge5" class="edge">
<title>Node1&#45;&gt;Node6</title>
<path fill="none" stroke="black" d="M104.49,-152.08C123.44,-146 145.8,-138.82 165.57,-132.47"/>
<polygon fill="black" stroke="black" points="103.67,-148.67 95.22,-155.06 105.81,-155.33 103.67,-148.67"/>
</g>
<!-- Node2 -->
<g id="Node000002" class="node">
<title>Node2</title>
<g id="a_Node000002"><a xlink:href="group__mpu6050__link__driver.html" target="_top" xlink:title="mpu6050 link driver modules">
<polygon fill="white" stroke="#666666" points="268.25,-82 167.5,-82 167.5,-50 268.25,-50 268.25,-82"/>
<text xml:space="preserve" text-anchor="start" x="175.5" y="-68.5" font-family="Helvetica,sans-Serif" font-size="10.00">mpu6050 link driver</text>
<text xml:space="preserve" text-anchor="middle" x="217.88" y="-56.5" font-family="Helvetica,sans-Serif" font-size="10.00"> function</text>
</a>
</g>
</g>
<!-- Node1&#45;&gt;Node2 -->
<g id="edge1" class="edge">
<title>Node1&#45;&gt;Node2</title>
<path fill="none" stroke="black" d="M80.48,-148.1C98.92,-131.7 127.99,-107.54 156.25,-91 161.46,-87.95 167.11,-85.1 172.79,-82.48"/>
<polygon fill="black" stroke="black" points="78.29,-145.35 73.22,-154.65 82.98,-150.55 78.29,-145.35"/>
</g>
<!-- Node8 -->
<g id="Node000008" class="node">
<title>Node8</title>
<g id="a_Node000008"><a xlink:href="group__mpu6050__test__driver.html" target="_top" xlink:title="mpu6050 test driver modules">
<polygon fill="white" stroke="#666666" points="269,-32 166.75,-32 166.75,0 269,0 269,-32"/>
<text xml:space="preserve" text-anchor="start" x="174.75" y="-18.5" font-family="Helvetica,sans-Serif" font-size="10.00">mpu6050 test driver</text>
<text xml:space="preserve" text-anchor="middle" x="217.88" y="-6.5" font-family="Helvetica,sans-Serif" font-size="10.00"> function</text>
</a>
</g>
</g>
<!-- Node1&#45;&gt;Node8 -->
<g id="edge7" class="edge">
<title>Node1&#45;&gt;Node8</title>
<path fill="none" stroke="black" d="M71.87,-145.89C87.28,-118.73 118.06,-70.37 156.25,-41 160.4,-37.81 165.02,-34.95 169.8,-32.42"/>
<polygon fill="black" stroke="black" points="68.9,-144.03 67.13,-154.47 75.03,-147.41 68.9,-144.03"/>
</g>
</g>
</svg>
