<?xml version="1.0" encoding="UTF-8" standalone="no"?>
<!DOCTYPE svg PUBLIC "-//W3C//DTD SVG 1.1//EN"
 "http://www.w3.org/Graphics/SVG/1.1/DTD/svg11.dtd">
<!-- Generated by graphviz version 13.1.0 (20250701.0955)
 -->
<!-- Title: mpu6050_fifo_init Pages: 1 -->
<svg width="466pt" height="1500pt"
 viewBox="0.00 0.00 466.00 1500.00" xmlns="http://www.w3.org/2000/svg" xmlns:xlink="http://www.w3.org/1999/xlink">
<g id="graph0" class="graph" transform="scale(1 1) rotate(0) translate(4 1496)">
<title>mpu6050_fifo_init</title>
<!-- Node1 -->
<g id="Node000001" class="node">
<title>Node1</title>
<g id="a_Node000001"><a xlink:title="fifo example init">
<polygon fill="#999999" stroke="#666666" points="92.5,-786 0,-786 0,-766 92.5,-766 92.5,-786"/>
<text xml:space="preserve" text-anchor="middle" x="46.25" y="-772.5" font-family="Helvetica,sans-Serif" font-size="10.00">mpu6050_fifo_init</text>
</a>
</g>
</g>
<!-- Node2 -->
<g id="Node000002" class="node">
<title>Node2</title>
<g id="a_Node000002"><a xlink:href="group__mpu6050__basic__driver.html#gaebee2da4601d43462952ee2333291c3f" target="_top" xlink:title="close the chip">
<polygon fill="white" stroke="#666666" points="252.12,-1492 167.88,-1492 167.88,-1472 252.12,-1472 252.12,-1492"/>
<text xml:space="preserve" text-anchor="middle" x="210" y="-1478.5" font-family="Helvetica,sans-Serif" font-size="10.00">mpu6050_deinit</text>
</a>
</g>
</g>
<!-- Node1&#45;&gt;Node2 -->
<g id="edge1_Node000001_Node000002" class="edge">
<title>Node1&#45;&gt;Node2</title>
<g id="a_edge1_Node000001_Node000002"><a xlink:title=" ">
<path fill="none" stroke="#63b8ff" d="M47.77,-786.43C51.96,-868.6 81.23,-1410.01 128.5,-1463 135.81,-1471.19 145.93,-1476.19 156.53,-1479.16"/>
<polygon fill="#63b8ff" stroke="#63b8ff" points="155.66,-1482.55 166.18,-1481.26 157.15,-1475.71 155.66,-1482.55"/>
</a>
</g>
</g>
<!-- Node3 -->
<g id="Node000003" class="node">
<title>Node3</title>
<g id="a_Node000003"><a xlink:href="group__mpu6050__basic__driver.html#gaa4894a003a82e223ebd86649861917eb" target="_top" xlink:title="force reset the fifo">
<polygon fill="white" stroke="#666666" points="260.75,-1454 159.25,-1454 159.25,-1422 260.75,-1422 260.75,-1454"/>
<text xml:space="preserve" text-anchor="start" x="167.25" y="-1440.5" font-family="Helvetica,sans-Serif" font-size="10.00">mpu6050_force_fifo</text>
<text xml:space="preserve" text-anchor="middle" x="210" y="-1428.5" font-family="Helvetica,sans-Serif" font-size="10.00">_reset</text>
</a>
</g>
</g>
<!-- Node1&#45;&gt;Node3 -->
<g id="edge2_Node000001_Node000003" class="edge">
<title>Node1&#45;&gt;Node3</title>
<g id="a_edge2_Node000001_Node000003"><a xlink:title=" ">
<path fill="none" stroke="#63b8ff" d="M47.1,-786.13C46.22,-859.76 44.28,-1312.66 128.5,-1413 133.87,-1419.4 140.84,-1424.18 148.44,-1427.76"/>
<polygon fill="#63b8ff" stroke="#63b8ff" points="147.1,-1430.99 157.69,-1431.37 149.65,-1424.47 147.1,-1430.99"/>
</a>
</g>
</g>
<!-- Node4 -->
<g id="Node000004" class="node">
<title>Node4</title>
<g id="a_Node000004"><a xlink:href="group__mpu6050__basic__driver.html#ga3fa7179bdd4783d5833f5773c4907467" target="_top" xlink:title="initialize the chip">
<polygon fill="white" stroke="#666666" points="246.88,-1404 173.12,-1404 173.12,-1384 246.88,-1384 246.88,-1404"/>
<text xml:space="preserve" text-anchor="middle" x="210" y="-1390.5" font-family="Helvetica,sans-Serif" font-size="10.00">mpu6050_init</text>
</a>
</g>
</g>
<!-- Node1&#45;&gt;Node4 -->
<g id="edge3_Node000001_Node000004" class="edge">
<title>Node1&#45;&gt;Node4</title>
<g id="a_edge3_Node000001_Node000004"><a xlink:title=" ">
<path fill="none" stroke="#63b8ff" d="M47.19,-786.36C47,-857.81 49.26,-1277.53 128.5,-1370 137.01,-1379.94 149.45,-1385.85 162.01,-1389.35"/>
<polygon fill="#63b8ff" stroke="#63b8ff" points="160.98,-1392.71 171.51,-1391.51 162.53,-1385.88 160.98,-1392.71"/>
</a>
</g>
</g>
<!-- Node5 -->
<g id="Node000005" class="node">
<title>Node5</title>
<g id="a_Node000005"><a xlink:href="group__mpu6050__interface__driver.html#ga766f67d9a4579de12f966228ea1250f3" target="_top" xlink:title="interface print format data">
<polygon fill="white" stroke="#666666" points="457.5,-1243 327.5,-1243 327.5,-1211 457.5,-1211 457.5,-1243"/>
<text xml:space="preserve" text-anchor="start" x="335.5" y="-1229.5" font-family="Helvetica,sans-Serif" font-size="10.00">mpu6050_interface_debug</text>
<text xml:space="preserve" text-anchor="middle" x="392.5" y="-1217.5" font-family="Helvetica,sans-Serif" font-size="10.00">_print</text>
</a>
</g>
</g>
<!-- Node1&#45;&gt;Node5 -->
<g id="edge4_Node000001_Node000005" class="edge">
<title>Node1&#45;&gt;Node5</title>
<g id="a_edge4_Node000001_Node000005"><a xlink:title=" ">
<path fill="none" stroke="#63b8ff" d="M47.01,-786.5C45.63,-857.06 41.63,-1261.8 128.5,-1337 183.27,-1384.41 225.25,-1366.31 291.5,-1337 330.22,-1319.87 360.38,-1279.53 377.05,-1252.75"/>
<polygon fill="#63b8ff" stroke="#63b8ff" points="379.84,-1254.9 381.99,-1244.53 373.84,-1251.3 379.84,-1254.9"/>
</a>
</g>
</g>
<!-- Node6 -->
<g id="Node000006" class="node">
<title>Node6</title>
<g id="a_Node000006"><a xlink:href="group__mpu6050__interface__driver.html#gaff78feee028c344ef7da403a23696b51" target="_top" xlink:title="interface delay ms">
<polygon fill="white" stroke="#666666" points="282.88,-1328 137.12,-1328 137.12,-1308 282.88,-1308 282.88,-1328"/>
<text xml:space="preserve" text-anchor="middle" x="210" y="-1314.5" font-family="Helvetica,sans-Serif" font-size="10.00">mpu6050_interface_delay_ms</text>
</a>
</g>
</g>
<!-- Node1&#45;&gt;Node6 -->
<g id="edge5_Node000001_Node000006" class="edge">
<title>Node1&#45;&gt;Node6</title>
<g id="a_edge5_Node000001_Node000006"><a xlink:title=" ">
<path fill="none" stroke="#63b8ff" d="M47.34,-786.43C48.16,-853.22 55.96,-1220.59 128.5,-1299 129.09,-1299.63 129.69,-1300.25 130.3,-1300.84"/>
<polygon fill="#63b8ff" stroke="#63b8ff" points="127.85,-1303.37 137.92,-1306.65 132.09,-1297.8 127.85,-1303.37"/>
</a>
</g>
</g>
<!-- Node7 -->
<g id="Node000007" class="node">
<title>Node7</title>
<g id="a_Node000007"><a xlink:href="group__mpu6050__interface__driver.html#ga4ad3030755a97f7067d958d34bfbdfe4" target="_top" xlink:title="interface iic bus deinit">
<polygon fill="white" stroke="#666666" points="266.75,-1290 153.25,-1290 153.25,-1258 266.75,-1258 266.75,-1290"/>
<text xml:space="preserve" text-anchor="start" x="161.25" y="-1276.5" font-family="Helvetica,sans-Serif" font-size="10.00">mpu6050_interface_iic</text>
<text xml:space="preserve" text-anchor="middle" x="210" y="-1264.5" font-family="Helvetica,sans-Serif" font-size="10.00">_deinit</text>
</a>
</g>
</g>
<!-- Node1&#45;&gt;Node7 -->
<g id="edge6_Node000001_Node000007" class="edge">
<title>Node1&#45;&gt;Node7</title>
<g id="a_edge6_Node000001_Node000007"><a xlink:title=" ">
<path fill="none" stroke="#63b8ff" d="M47.59,-786.18C49.89,-848.32 64.91,-1176.49 128.5,-1249 132.6,-1253.68 137.56,-1257.49 142.98,-1260.6"/>
<polygon fill="#63b8ff" stroke="#63b8ff" points="141.24,-1263.65 151.77,-1264.81 144.26,-1257.33 141.24,-1263.65"/>
</a>
</g>
</g>
<!-- Node8 -->
<g id="Node000008" class="node">
<title>Node8</title>
<g id="a_Node000008"><a xlink:href="group__mpu6050__interface__driver.html#gae82a00b862b6c02b4f76f5ccd3d820c6" target="_top" xlink:title="interface iic bus init">
<polygon fill="white" stroke="#666666" points="275.75,-1240 144.25,-1240 144.25,-1220 275.75,-1220 275.75,-1240"/>
<text xml:space="preserve" text-anchor="middle" x="210" y="-1226.5" font-family="Helvetica,sans-Serif" font-size="10.00">mpu6050_interface_iic_init</text>
</a>
</g>
</g>
<!-- Node1&#45;&gt;Node8 -->
<g id="edge7_Node000001_Node000008" class="edge">
<title>Node1&#45;&gt;Node8</title>
<g id="a_edge7_Node000001_Node000008"><a xlink:title=" ">
<path fill="none" stroke="#63b8ff" d="M47.69,-786.18C50.45,-845.58 67.38,-1146.93 128.5,-1211 130.27,-1212.86 132.19,-1214.55 134.22,-1216.09"/>
<polygon fill="#63b8ff" stroke="#63b8ff" points="132.13,-1218.91 142.5,-1221.11 135.77,-1212.93 132.13,-1218.91"/>
</a>
</g>
</g>
<!-- Node9 -->
<g id="Node000009" class="node">
<title>Node9</title>
<g id="a_Node000009"><a xlink:href="group__mpu6050__interface__driver.html#ga5ed51358859988d3b6168c1c34ff6571" target="_top" xlink:title="interface iic bus read">
<polygon fill="white" stroke="#666666" points="278.75,-1202 141.25,-1202 141.25,-1182 278.75,-1182 278.75,-1202"/>
<text xml:space="preserve" text-anchor="middle" x="210" y="-1188.5" font-family="Helvetica,sans-Serif" font-size="10.00">mpu6050_interface_iic_read</text>
</a>
</g>
</g>
<!-- Node1&#45;&gt;Node9 -->
<g id="edge8_Node000001_Node000009" class="edge">
<title>Node1&#45;&gt;Node9</title>
<g id="a_edge8_Node000001_Node000009"><a xlink:title=" ">
<path fill="none" stroke="#63b8ff" d="M47.9,-786.39C51.65,-843.13 72.4,-1115.19 128.5,-1173 129.51,-1174.04 130.57,-1175.03 131.67,-1175.97"/>
<polygon fill="#63b8ff" stroke="#63b8ff" points="129.33,-1178.61 139.56,-1181.38 133.29,-1172.84 129.33,-1178.61"/>
</a>
</g>
</g>
<!-- Node10 -->
<g id="Node000010" class="node">
<title>Node10</title>
<g id="a_Node000010"><a xlink:href="group__mpu6050__interface__driver.html#gaddddbfa804e2824445fea96c14e1b590" target="_top" xlink:title="interface iic bus write">
<polygon fill="white" stroke="#666666" points="266.75,-1164 153.25,-1164 153.25,-1132 266.75,-1132 266.75,-1164"/>
<text xml:space="preserve" text-anchor="start" x="161.25" y="-1150.5" font-family="Helvetica,sans-Serif" font-size="10.00">mpu6050_interface_iic</text>
<text xml:space="preserve" text-anchor="middle" x="210" y="-1138.5" font-family="Helvetica,sans-Serif" font-size="10.00">_write</text>
</a>
</g>
</g>
<!-- Node1&#45;&gt;Node10 -->
<g id="edge9_Node000001_Node000010" class="edge">
<title>Node1&#45;&gt;Node10</title>
<g id="a_edge9_Node000001_Node000010"><a xlink:title=" ">
<path fill="none" stroke="#63b8ff" d="M48.3,-786.37C53.77,-838.52 80.64,-1071.61 128.5,-1123 132.68,-1127.48 137.64,-1131.17 143.02,-1134.2"/>
<polygon fill="#63b8ff" stroke="#63b8ff" points="141.18,-1137.2 151.72,-1138.32 144.18,-1130.88 141.18,-1137.2"/>
</a>
</g>
</g>
<!-- Node11 -->
<g id="Node000011" class="node">
<title>Node11</title>
<g id="a_Node000011"><a xlink:href="group__mpu6050__interface__driver.html#gaf09d98bce66f648d644cfe93f3ec5fe7" target="_top" xlink:title="interface receive callback">
<polygon fill="white" stroke="#666666" points="277.62,-1114 142.38,-1114 142.38,-1082 277.62,-1082 277.62,-1114"/>
<text xml:space="preserve" text-anchor="start" x="150.38" y="-1100.5" font-family="Helvetica,sans-Serif" font-size="10.00">mpu6050_interface_receive</text>
<text xml:space="preserve" text-anchor="middle" x="210" y="-1088.5" font-family="Helvetica,sans-Serif" font-size="10.00">_callback</text>
</a>
</g>
</g>
<!-- Node1&#45;&gt;Node11 -->
<g id="edge10_Node000001_Node000011" class="edge">
<title>Node1&#45;&gt;Node11</title>
<g id="a_edge10_Node000001_Node000011"><a xlink:title=" ">
<path fill="none" stroke="#63b8ff" d="M46.79,-786.37C45.5,-828.43 46.4,-988.05 128.5,-1073 129.86,-1074.41 131.3,-1075.74 132.81,-1077"/>
<polygon fill="#63b8ff" stroke="#63b8ff" points="130.62,-1079.74 140.84,-1082.55 134.61,-1073.98 130.62,-1079.74"/>
</a>
</g>
</g>
<!-- Node12 -->
<g id="Node000012" class="node">
<title>Node12</title>
<g id="a_Node000012"><a xlink:href="group__mpu6050__basic__driver.html#ga447aae606d0224fc18d75b5e34031ac4" target="_top" xlink:title="set the accelerometer range">
<polygon fill="white" stroke="#666666" points="280.62,-1064 139.38,-1064 139.38,-1032 280.62,-1032 280.62,-1064"/>
<text xml:space="preserve" text-anchor="start" x="147.38" y="-1050.5" font-family="Helvetica,sans-Serif" font-size="10.00">mpu6050_set_accelerometer</text>
<text xml:space="preserve" text-anchor="middle" x="210" y="-1038.5" font-family="Helvetica,sans-Serif" font-size="10.00">_range</text>
</a>
</g>
</g>
<!-- Node1&#45;&gt;Node12 -->
<g id="edge12_Node000001_Node000012" class="edge">
<title>Node1&#45;&gt;Node12</title>
<g id="a_edge12_Node000001_Node000012"><a xlink:title=" ">
<path fill="none" stroke="#63b8ff" d="M47.46,-786.41C48.79,-824 58.5,-954.15 128.5,-1023 129.13,-1023.62 129.77,-1024.22 130.42,-1024.8"/>
<polygon fill="#63b8ff" stroke="#63b8ff" points="128.29,-1027.58 138.41,-1030.72 132.46,-1021.95 128.29,-1027.58"/>
</a>
</g>
</g>
<!-- Node13 -->
<g id="Node000013" class="node">
<title>Node13</title>
<g id="a_Node000013"><a xlink:href="group__mpu6050__basic__driver.html#gab3cee8f1703623eac797d75238326172" target="_top" xlink:title="set the accelerometer test">
<polygon fill="white" stroke="#666666" points="291.5,-1014 128.5,-1014 128.5,-994 291.5,-994 291.5,-1014"/>
<text xml:space="preserve" text-anchor="middle" x="210" y="-1000.5" font-family="Helvetica,sans-Serif" font-size="10.00">mpu6050_set_accelerometer_test</text>
</a>
</g>
</g>
<!-- Node1&#45;&gt;Node13 -->
<g id="edge13_Node000001_Node000013" class="edge">
<title>Node1&#45;&gt;Node13</title>
<g id="a_edge13_Node000001_Node000013"><a xlink:title=" ">
<path fill="none" stroke="#63b8ff" d="M47.98,-786.14C50.96,-819.99 65.35,-930.07 128.5,-985 129.6,-985.95 130.73,-986.86 131.9,-987.73"/>
<polygon fill="#63b8ff" stroke="#63b8ff" points="129.81,-990.55 140.18,-992.75 133.45,-984.57 129.81,-990.55"/>
</a>
</g>
</g>
<!-- Node14 -->
<g id="Node000014" class="node">
<title>Node14</title>
<g id="a_Node000014"><a xlink:href="group__mpu6050__basic__driver.html#ga6df42dd4efb2b614d2ee3db5e5b3b9c4" target="_top" xlink:title="set the chip address pin">
<polygon fill="white" stroke="#666666" points="268.25,-976 151.75,-976 151.75,-956 268.25,-956 268.25,-976"/>
<text xml:space="preserve" text-anchor="middle" x="210" y="-962.5" font-family="Helvetica,sans-Serif" font-size="10.00">mpu6050_set_addr_pin</text>
</a>
</g>
</g>
<!-- Node1&#45;&gt;Node14 -->
<g id="edge14_Node000001_Node000014" class="edge">
<title>Node1&#45;&gt;Node14</title>
<g id="a_edge14_Node000001_Node000014"><a xlink:title=" ">
<path fill="none" stroke="#63b8ff" d="M48.98,-786.38C54.53,-816.34 74.81,-903.63 128.5,-947 132.27,-950.05 136.44,-952.62 140.85,-954.79"/>
<polygon fill="#63b8ff" stroke="#63b8ff" points="139.5,-958.02 150.08,-958.59 142.16,-951.54 139.5,-958.02"/>
</a>
</g>
</g>
<!-- Node15 -->
<g id="Node000015" class="node">
<title>Node15</title>
<g id="a_Node000015"><a xlink:href="group__mpu6050__basic__driver.html#gad64a954b8e0a1a4512fa7a72dace6299" target="_top" xlink:title="set the chip clock source">
<polygon fill="white" stroke="#666666" points="278.75,-938 141.25,-938 141.25,-918 278.75,-918 278.75,-938"/>
<text xml:space="preserve" text-anchor="middle" x="210" y="-924.5" font-family="Helvetica,sans-Serif" font-size="10.00">mpu6050_set_clock_source</text>
</a>
</g>
</g>
<!-- Node1&#45;&gt;Node15 -->
<g id="edge15_Node000001_Node000015" class="edge">
<title>Node1&#45;&gt;Node15</title>
<g id="a_edge15_Node000001_Node000015"><a xlink:title=" ">
<path fill="none" stroke="#63b8ff" d="M50.41,-786.22C58.75,-811.39 83.8,-876.61 128.5,-909 130.29,-910.3 132.15,-911.5 134.07,-912.63"/>
<polygon fill="#63b8ff" stroke="#63b8ff" points="132.25,-915.63 142.76,-916.94 135.36,-909.36 132.25,-915.63"/>
</a>
</g>
</g>
<!-- Node16 -->
<g id="Node000016" class="node">
<title>Node16</title>
<g id="a_Node000016"><a xlink:href="group__mpu6050__basic__driver.html#ga864c1ec199e927bfb61a530c67abe322" target="_top" xlink:title="enable or disable the cycle wake up mode">
<polygon fill="white" stroke="#666666" points="283.62,-900 136.38,-900 136.38,-880 283.62,-880 283.62,-900"/>
<text xml:space="preserve" text-anchor="middle" x="210" y="-886.5" font-family="Helvetica,sans-Serif" font-size="10.00">mpu6050_set_cycle_wake_up</text>
</a>
</g>
</g>
<!-- Node1&#45;&gt;Node16 -->
<g id="edge16_Node000001_Node000016" class="edge">
<title>Node1&#45;&gt;Node16</title>
<g id="a_edge16_Node000001_Node000016"><a xlink:title=" ">
<path fill="none" stroke="#63b8ff" d="M53.09,-786.47C64.72,-806.27 92.74,-849.2 128.5,-871 130.97,-872.5 133.54,-873.89 136.2,-875.17"/>
<polygon fill="#63b8ff" stroke="#63b8ff" points="134.77,-878.36 145.35,-878.98 137.47,-871.9 134.77,-878.36"/>
</a>
</g>
</g>
<!-- Node17 -->
<g id="Node000017" class="node">
<title>Node17</title>
<g id="a_Node000017"><a xlink:href="group__mpu6050__basic__driver.html#gab40a10d0023ee96781e4d4b27ebeb81b" target="_top" xlink:title="set the extern sync type">
<polygon fill="white" stroke="#666666" points="276.5,-862 143.5,-862 143.5,-842 276.5,-842 276.5,-862"/>
<text xml:space="preserve" text-anchor="middle" x="210" y="-848.5" font-family="Helvetica,sans-Serif" font-size="10.00">mpu6050_set_extern_sync</text>
</a>
</g>
</g>
<!-- Node1&#45;&gt;Node17 -->
<g id="edge17_Node000001_Node000017" class="edge">
<title>Node1&#45;&gt;Node17</title>
<g id="a_edge17_Node000001_Node000017"><a xlink:title=" ">
<path fill="none" stroke="#63b8ff" d="M59.02,-786.46C74.08,-799.31 101.46,-820.87 128.5,-833 132.77,-834.92 137.27,-836.66 141.85,-838.23"/>
<polygon fill="#63b8ff" stroke="#63b8ff" points="140.63,-841.51 151.22,-841.15 142.71,-834.83 140.63,-841.51"/>
</a>
</g>
</g>
<!-- Node18 -->
<g id="Node000018" class="node">
<title>Node18</title>
<g id="a_Node000018"><a xlink:href="group__mpu6050__basic__driver.html#gabe6ed7483f2585da9e14015220c5873f" target="_top" xlink:title="enable or disable fifo">
<polygon fill="white" stroke="#666666" points="256.62,-824 163.38,-824 163.38,-804 256.62,-804 256.62,-824"/>
<text xml:space="preserve" text-anchor="middle" x="210" y="-810.5" font-family="Helvetica,sans-Serif" font-size="10.00">mpu6050_set_fifo</text>
</a>
</g>
</g>
<!-- Node1&#45;&gt;Node18 -->
<g id="edge18_Node000001_Node000018" class="edge">
<title>Node1&#45;&gt;Node18</title>
<g id="a_edge18_Node000001_Node000018"><a xlink:title=" ">
<path fill="none" stroke="#63b8ff" d="M91.88,-786.48C110.88,-790.95 133.25,-796.21 153.33,-800.92"/>
<polygon fill="#63b8ff" stroke="#63b8ff" points="152.51,-804.32 163.05,-803.2 154.11,-797.51 152.51,-804.32"/>
</a>
</g>
</g>
<!-- Node19 -->
<g id="Node000019" class="node">
<title>Node19</title>
<g id="a_Node000019"><a xlink:href="group__mpu6050__basic__driver.html#ga73bfc2157b7710eaf126097ca59facb4" target="_top" xlink:title="enable or disable the fifo function">
<polygon fill="white" stroke="#666666" points="273.5,-786 146.5,-786 146.5,-766 273.5,-766 273.5,-786"/>
<text xml:space="preserve" text-anchor="middle" x="210" y="-772.5" font-family="Helvetica,sans-Serif" font-size="10.00">mpu6050_set_fifo_enable</text>
</a>
</g>
</g>
<!-- Node1&#45;&gt;Node19 -->
<g id="edge19_Node000001_Node000019" class="edge">
<title>Node1&#45;&gt;Node19</title>
<g id="a_edge19_Node000001_Node000019"><a xlink:title=" ">
<path fill="none" stroke="#63b8ff" d="M92.74,-776C105.79,-776 120.37,-776 134.68,-776"/>
<polygon fill="#63b8ff" stroke="#63b8ff" points="134.54,-779.5 144.54,-776 134.54,-772.5 134.54,-779.5"/>
</a>
</g>
</g>
<!-- Node20 -->
<g id="Node000020" class="node">
<title>Node20</title>
<g id="a_Node000020"><a xlink:href="group__mpu6050__basic__driver.html#gae2ea1c1863d0757f970256d5ad52de7a" target="_top" xlink:title="enable or disable the fsync interrupt">
<polygon fill="white" stroke="#666666" points="282.12,-748 137.88,-748 137.88,-728 282.12,-728 282.12,-748"/>
<text xml:space="preserve" text-anchor="middle" x="210" y="-734.5" font-family="Helvetica,sans-Serif" font-size="10.00">mpu6050_set_fsync_interrupt</text>
</a>
</g>
</g>
<!-- Node1&#45;&gt;Node20 -->
<g id="edge20_Node000001_Node000020" class="edge">
<title>Node1&#45;&gt;Node20</title>
<g id="a_edge20_Node000001_Node000020"><a xlink:title=" ">
<path fill="none" stroke="#63b8ff" d="M91.88,-765.52C110.88,-761.05 133.25,-755.79 153.33,-751.08"/>
<polygon fill="#63b8ff" stroke="#63b8ff" points="154.11,-754.49 163.05,-748.8 152.51,-747.68 154.11,-754.49"/>
</a>
</g>
</g>
<!-- Node21 -->
<g id="Node000021" class="node">
<title>Node21</title>
<g id="a_Node000021"><a xlink:href="group__mpu6050__basic__driver.html#gaf7eae49db5045842084aa79bc474b9b2" target="_top" xlink:title="set the fsync interrupt level">
<polygon fill="white" stroke="#666666" points="282.12,-710 137.88,-710 137.88,-678 282.12,-678 282.12,-710"/>
<text xml:space="preserve" text-anchor="start" x="145.88" y="-696.5" font-family="Helvetica,sans-Serif" font-size="10.00">mpu6050_set_fsync_interrupt</text>
<text xml:space="preserve" text-anchor="middle" x="210" y="-684.5" font-family="Helvetica,sans-Serif" font-size="10.00">_level</text>
</a>
</g>
</g>
<!-- Node1&#45;&gt;Node21 -->
<g id="edge21_Node000001_Node000021" class="edge">
<title>Node1&#45;&gt;Node21</title>
<g id="a_edge21_Node000001_Node000021"><a xlink:title=" ">
<path fill="none" stroke="#63b8ff" d="M59.43,-765.62C74.68,-753.06 102.05,-731.99 128.5,-719 131.62,-717.47 134.85,-716.01 138.15,-714.61"/>
<polygon fill="#63b8ff" stroke="#63b8ff" points="139.41,-717.88 147.44,-710.96 136.85,-711.36 139.41,-717.88"/>
</a>
</g>
</g>
<!-- Node22 -->
<g id="Node000022" class="node">
<title>Node22</title>
<g id="a_Node000022"><a xlink:href="group__mpu6050__basic__driver.html#ga6b5f9a7d2f0ad23c7ea84275e432fa80" target="_top" xlink:title="set the gyroscope range">
<polygon fill="white" stroke="#666666" points="272.38,-660 147.62,-660 147.62,-628 272.38,-628 272.38,-660"/>
<text xml:space="preserve" text-anchor="start" x="155.62" y="-646.5" font-family="Helvetica,sans-Serif" font-size="10.00">mpu6050_set_gyroscope</text>
<text xml:space="preserve" text-anchor="middle" x="210" y="-634.5" font-family="Helvetica,sans-Serif" font-size="10.00">_range</text>
</a>
</g>
</g>
<!-- Node1&#45;&gt;Node22 -->
<g id="edge22_Node000001_Node000022" class="edge">
<title>Node1&#45;&gt;Node22</title>
<g id="a_edge22_Node000001_Node000022"><a xlink:title=" ">
<path fill="none" stroke="#63b8ff" d="M52.21,-765.77C63.04,-744.52 90.87,-695.37 128.5,-669 131.2,-667.11 134.04,-665.36 136.99,-663.74"/>
<polygon fill="#63b8ff" stroke="#63b8ff" points="138.5,-666.89 145.96,-659.37 135.44,-660.6 138.5,-666.89"/>
</a>
</g>
</g>
<!-- Node23 -->
<g id="Node000023" class="node">
<title>Node23</title>
<g id="a_Node000023"><a xlink:href="group__mpu6050__basic__driver.html#ga820d51a44799f0531ff73dd3a119d2cf" target="_top" xlink:title="set the gyroscope test">
<polygon fill="white" stroke="#666666" points="283.25,-610 136.75,-610 136.75,-590 283.25,-590 283.25,-610"/>
<text xml:space="preserve" text-anchor="middle" x="210" y="-596.5" font-family="Helvetica,sans-Serif" font-size="10.00">mpu6050_set_gyroscope_test</text>
</a>
</g>
</g>
<!-- Node1&#45;&gt;Node23 -->
<g id="edge23_Node000001_Node000023" class="edge">
<title>Node1&#45;&gt;Node23</title>
<g id="a_edge23_Node000001_Node000023"><a xlink:title=" ">
<path fill="none" stroke="#63b8ff" d="M49.44,-765.65C55.99,-737.37 78.17,-658.27 128.5,-619 130.02,-617.82 131.6,-616.7 133.23,-615.66"/>
<polygon fill="#63b8ff" stroke="#63b8ff" points="134.56,-618.91 141.72,-611.1 131.25,-612.75 134.56,-618.91"/>
</a>
</g>
</g>
<!-- Node24 -->
<g id="Node000024" class="node">
<title>Node24</title>
<g id="a_Node000024"><a xlink:href="group__mpu6050__basic__driver.html#ga7ff2e56ada9011115ba08a3ed4218fae" target="_top" xlink:title="enable or disable the iic bypass">
<polygon fill="white" stroke="#666666" points="273.12,-572 146.88,-572 146.88,-552 273.12,-552 273.12,-572"/>
<text xml:space="preserve" text-anchor="middle" x="210" y="-558.5" font-family="Helvetica,sans-Serif" font-size="10.00">mpu6050_set_iic_bypass</text>
</a>
</g>
</g>
<!-- Node1&#45;&gt;Node24 -->
<g id="edge24_Node000001_Node000024" class="edge">
<title>Node1&#45;&gt;Node24</title>
<g id="a_edge24_Node000001_Node000024"><a xlink:title=" ">
<path fill="none" stroke="#63b8ff" d="M48.32,-765.62C52.25,-732.98 68.95,-631.56 128.5,-581 131.01,-578.87 133.73,-576.96 136.58,-575.26"/>
<polygon fill="#63b8ff" stroke="#63b8ff" points="137.96,-578.48 145.38,-570.92 134.87,-572.2 137.96,-578.48"/>
</a>
</g>
</g>
<!-- Node25 -->
<g id="Node000025" class="node">
<title>Node25</title>
<g id="a_Node000025"><a xlink:href="group__mpu6050__basic__driver.html#gaa35e9a70bdae6b95305c7fa3e95aaeda" target="_top" xlink:title="enable or disable the iic master mode">
<polygon fill="white" stroke="#666666" points="272.38,-534 147.62,-534 147.62,-514 272.38,-514 272.38,-534"/>
<text xml:space="preserve" text-anchor="middle" x="210" y="-520.5" font-family="Helvetica,sans-Serif" font-size="10.00">mpu6050_set_iic_master</text>
</a>
</g>
</g>
<!-- Node1&#45;&gt;Node25 -->
<g id="edge25_Node000001_Node000025" class="edge">
<title>Node1&#45;&gt;Node25</title>
<g id="a_edge25_Node000001_Node000025"><a xlink:title=" ">
<path fill="none" stroke="#63b8ff" d="M47.52,-765.76C49.08,-729.38 59.45,-605.24 128.5,-543 131.13,-540.63 134.01,-538.53 137.06,-536.69"/>
<polygon fill="#63b8ff" stroke="#63b8ff" points="138.53,-539.87 145.92,-532.28 135.41,-533.6 138.53,-539.87"/>
</a>
</g>
</g>
<!-- Node26 -->
<g id="Node000026" class="node">
<title>Node26</title>
<g id="a_Node000026"><a xlink:href="group__mpu6050__basic__driver.html#ga7fcdea5bc0936e5b228ac39d9612f5f9" target="_top" xlink:title="enable or disable the interrupt">
<polygon fill="white" stroke="#666666" points="267.5,-496 152.5,-496 152.5,-476 267.5,-476 267.5,-496"/>
<text xml:space="preserve" text-anchor="middle" x="210" y="-482.5" font-family="Helvetica,sans-Serif" font-size="10.00">mpu6050_set_interrupt</text>
</a>
</g>
</g>
<!-- Node1&#45;&gt;Node26 -->
<g id="edge26_Node000001_Node000026" class="edge">
<title>Node1&#45;&gt;Node26</title>
<g id="a_edge26_Node000001_Node000026"><a xlink:title=" ">
<path fill="none" stroke="#63b8ff" d="M46.95,-765.55C46.39,-725.31 50.03,-578.93 128.5,-505 132.47,-501.26 137.04,-498.21 141.93,-495.73"/>
<polygon fill="#63b8ff" stroke="#63b8ff" points="143.07,-499.04 150.97,-491.98 140.39,-492.58 143.07,-499.04"/>
</a>
</g>
</g>
<!-- Node27 -->
<g id="Node000027" class="node">
<title>Node27</title>
<g id="a_Node000027"><a xlink:href="group__mpu6050__basic__driver.html#gaa76f7112fae3595d886b3c43a120c1d3" target="_top" xlink:title="enable or disable the interrupt latch">
<polygon fill="white" stroke="#666666" points="267.5,-458 152.5,-458 152.5,-426 267.5,-426 267.5,-458"/>
<text xml:space="preserve" text-anchor="start" x="160.5" y="-444.5" font-family="Helvetica,sans-Serif" font-size="10.00">mpu6050_set_interrupt</text>
<text xml:space="preserve" text-anchor="middle" x="210" y="-432.5" font-family="Helvetica,sans-Serif" font-size="10.00">_latch</text>
</a>
</g>
</g>
<!-- Node1&#45;&gt;Node27 -->
<g id="edge27_Node000001_Node000027" class="edge">
<title>Node1&#45;&gt;Node27</title>
<g id="a_edge27_Node000001_Node000027"><a xlink:title=" ">
<path fill="none" stroke="#63b8ff" d="M48.59,-765.81C55.15,-717.52 85.26,-512.19 128.5,-467 132.45,-462.88 137.06,-459.43 142.04,-456.55"/>
<polygon fill="#63b8ff" stroke="#63b8ff" points="143.2,-459.88 150.65,-452.34 140.12,-453.59 143.2,-459.88"/>
</a>
</g>
</g>
<!-- Node28 -->
<g id="Node000028" class="node">
<title>Node28</title>
<g id="a_Node000028"><a xlink:href="group__mpu6050__basic__driver.html#gabf093821c0f94024bb248d41d67fd857" target="_top" xlink:title="set the interrupt level">
<polygon fill="white" stroke="#666666" points="267.5,-408 152.5,-408 152.5,-376 267.5,-376 267.5,-408"/>
<text xml:space="preserve" text-anchor="start" x="160.5" y="-394.5" font-family="Helvetica,sans-Serif" font-size="10.00">mpu6050_set_interrupt</text>
<text xml:space="preserve" text-anchor="middle" x="210" y="-382.5" font-family="Helvetica,sans-Serif" font-size="10.00">_level</text>
</a>
</g>
</g>
<!-- Node1&#45;&gt;Node28 -->
<g id="edge28_Node000001_Node000028" class="edge">
<title>Node1&#45;&gt;Node28</title>
<g id="a_edge28_Node000001_Node000028"><a xlink:title=" ">
<path fill="none" stroke="#63b8ff" d="M48.21,-765.63C53.35,-712.4 79.16,-470.38 128.5,-417 132.43,-412.74 137.08,-409.21 142.12,-406.27"/>
<polygon fill="#63b8ff" stroke="#63b8ff" points="143.42,-409.53 150.86,-401.98 140.34,-403.24 143.42,-409.53"/>
</a>
</g>
</g>
<!-- Node29 -->
<g id="Node000029" class="node">
<title>Node29</title>
<g id="a_Node000029"><a xlink:href="group__mpu6050__basic__driver.html#ga8b41f9600b91d7660bfb99b95ad8ada4" target="_top" xlink:title="set the interrupt pin type">
<polygon fill="white" stroke="#666666" points="267.5,-358 152.5,-358 152.5,-326 267.5,-326 267.5,-358"/>
<text xml:space="preserve" text-anchor="start" x="160.5" y="-344.5" font-family="Helvetica,sans-Serif" font-size="10.00">mpu6050_set_interrupt</text>
<text xml:space="preserve" text-anchor="middle" x="210" y="-332.5" font-family="Helvetica,sans-Serif" font-size="10.00">_pin_type</text>
</a>
</g>
</g>
<!-- Node1&#45;&gt;Node29 -->
<g id="edge29_Node000001_Node000029" class="edge">
<title>Node1&#45;&gt;Node29</title>
<g id="a_edge29_Node000001_Node000029"><a xlink:title=" ">
<path fill="none" stroke="#63b8ff" d="M47.9,-765.74C51.69,-708.49 72.92,-428.74 128.5,-367 132.38,-362.69 136.98,-359.12 142,-356.16"/>
<polygon fill="#63b8ff" stroke="#63b8ff" points="143.29,-359.42 150.7,-351.85 140.19,-353.14 143.29,-359.42"/>
</a>
</g>
</g>
<!-- Node30 -->
<g id="Node000030" class="node">
<title>Node30</title>
<g id="a_Node000030"><a xlink:href="group__mpu6050__basic__driver.html#ga71d2c1d97d63badf346d3d74ec249722" target="_top" xlink:title="enable or disable the interrupt reading clear">
<polygon fill="white" stroke="#666666" points="267.5,-308 152.5,-308 152.5,-276 267.5,-276 267.5,-308"/>
<text xml:space="preserve" text-anchor="start" x="160.5" y="-294.5" font-family="Helvetica,sans-Serif" font-size="10.00">mpu6050_set_interrupt</text>
<text xml:space="preserve" text-anchor="middle" x="210" y="-282.5" font-family="Helvetica,sans-Serif" font-size="10.00">_read_clear</text>
</a>
</g>
</g>
<!-- Node1&#45;&gt;Node30 -->
<g id="edge30_Node000001_Node000030" class="edge">
<title>Node1&#45;&gt;Node30</title>
<g id="a_edge30_Node000001_Node000030"><a xlink:title=" ">
<path fill="none" stroke="#63b8ff" d="M47.66,-765.73C50.27,-704.42 66.7,-387.12 128.5,-317 132.39,-312.58 137.05,-308.94 142.13,-305.93"/>
<polygon fill="#63b8ff" stroke="#63b8ff" points="143.57,-309.13 150.99,-301.57 140.47,-302.85 143.57,-309.13"/>
</a>
</g>
</g>
<!-- Node31 -->
<g id="Node000031" class="node">
<title>Node31</title>
<g id="a_Node000031"><a xlink:href="group__mpu6050__basic__driver.html#gae64ced53188b4b8a7ca64d1bc3318e17" target="_top" xlink:title="set the low pass filter">
<polygon fill="white" stroke="#666666" points="270.5,-258 149.5,-258 149.5,-226 270.5,-226 270.5,-258"/>
<text xml:space="preserve" text-anchor="start" x="157.5" y="-244.5" font-family="Helvetica,sans-Serif" font-size="10.00">mpu6050_set_low_pass</text>
<text xml:space="preserve" text-anchor="middle" x="210" y="-232.5" font-family="Helvetica,sans-Serif" font-size="10.00">_filter</text>
</a>
</g>
</g>
<!-- Node1&#45;&gt;Node31 -->
<g id="edge31_Node000001_Node000031" class="edge">
<title>Node1&#45;&gt;Node31</title>
<g id="a_edge31_Node000001_Node000031"><a xlink:title=" ">
<path fill="none" stroke="#63b8ff" d="M47.46,-765.91C48.98,-701.27 60.38,-345.62 128.5,-267 131.68,-263.33 135.39,-260.19 139.44,-257.51"/>
<polygon fill="#63b8ff" stroke="#63b8ff" points="140.99,-260.64 148.07,-252.76 137.62,-254.51 140.99,-260.64"/>
</a>
</g>
</g>
<!-- Node32 -->
<g id="Node000032" class="node">
<title>Node32</title>
<g id="a_Node000032"><a xlink:href="group__mpu6050__basic__driver.html#ga6780b944f4cbbae54ae68074a4bf1484" target="_top" xlink:title="set the sample rate divider">
<polygon fill="white" stroke="#666666" points="265.62,-208 154.38,-208 154.38,-176 265.62,-176 265.62,-208"/>
<text xml:space="preserve" text-anchor="start" x="162.38" y="-194.5" font-family="Helvetica,sans-Serif" font-size="10.00">mpu6050_set_sample</text>
<text xml:space="preserve" text-anchor="middle" x="210" y="-182.5" font-family="Helvetica,sans-Serif" font-size="10.00">_rate_divider</text>
</a>
</g>
</g>
<!-- Node1&#45;&gt;Node32 -->
<g id="edge32_Node000001_Node000032" class="edge">
<title>Node1&#45;&gt;Node32</title>
<g id="a_edge32_Node000001_Node000032"><a xlink:title=" ">
<path fill="none" stroke="#63b8ff" d="M47.3,-765.82C47.83,-697.36 54.13,-304.05 128.5,-217 132.82,-211.94 138.15,-207.89 143.99,-204.65"/>
<polygon fill="#63b8ff" stroke="#63b8ff" points="145.23,-207.93 152.84,-200.56 142.3,-201.57 145.23,-207.93"/>
</a>
</g>
</g>
<!-- Node33 -->
<g id="Node000033" class="node">
<title>Node33</title>
<g id="a_Node000033"><a xlink:href="group__mpu6050__basic__driver.html#gab7da297ba4960fdaffac2b57025bcafc" target="_top" xlink:title="enable or disable the sleep mode">
<polygon fill="white" stroke="#666666" points="261.5,-158 158.5,-158 158.5,-138 261.5,-138 261.5,-158"/>
<text xml:space="preserve" text-anchor="middle" x="210" y="-144.5" font-family="Helvetica,sans-Serif" font-size="10.00">mpu6050_set_sleep</text>
</a>
</g>
</g>
<!-- Node1&#45;&gt;Node33 -->
<g id="edge33_Node000001_Node000033" class="edge">
<title>Node1&#45;&gt;Node33</title>
<g id="a_edge33_Node000001_Node000033"><a xlink:title=" ">
<path fill="none" stroke="#63b8ff" d="M47.1,-765.8C46.22,-693.57 44.56,-259.71 128.5,-167 133.68,-161.28 140.23,-157.12 147.36,-154.13"/>
<polygon fill="#63b8ff" stroke="#63b8ff" points="148.3,-157.5 156.67,-151 146.08,-150.86 148.3,-157.5"/>
</a>
</g>
</g>
<!-- Node34 -->
<g id="Node000034" class="node">
<title>Node34</title>
<g id="a_Node000034"><a xlink:href="group__mpu6050__basic__driver.html#ga4a3a787d582ff6d4809d76920c61f541" target="_top" xlink:title="set source into standby mode">
<polygon fill="white" stroke="#666666" points="281.75,-120 138.25,-120 138.25,-100 281.75,-100 281.75,-120"/>
<text xml:space="preserve" text-anchor="middle" x="210" y="-106.5" font-family="Helvetica,sans-Serif" font-size="10.00">mpu6050_set_standby_mode</text>
</a>
</g>
</g>
<!-- Node1&#45;&gt;Node34 -->
<g id="edge34_Node000001_Node000034" class="edge">
<title>Node1&#45;&gt;Node34</title>
<g id="a_edge34_Node000001_Node000034"><a xlink:title=" ">
<path fill="none" stroke="#63b8ff" d="M47.01,-765.65C45.45,-690.44 39.6,-227.95 128.5,-129 128.98,-128.47 129.47,-127.95 129.97,-127.44"/>
<polygon fill="#63b8ff" stroke="#63b8ff" points="132.12,-130.2 137.82,-121.27 127.8,-124.7 132.12,-130.2"/>
</a>
</g>
</g>
<!-- Node35 -->
<g id="Node000035" class="node">
<title>Node35</title>
<g id="a_Node000035"><a xlink:href="group__mpu6050__basic__driver.html#gaa75bd4abd828a6333a6c73c645905807" target="_top" xlink:title="enable or disable the temperature sensor">
<polygon fill="white" stroke="#666666" points="275.75,-82 144.25,-82 144.25,-50 275.75,-50 275.75,-82"/>
<text xml:space="preserve" text-anchor="start" x="152.25" y="-68.5" font-family="Helvetica,sans-Serif" font-size="10.00">mpu6050_set_temperature</text>
<text xml:space="preserve" text-anchor="middle" x="210" y="-56.5" font-family="Helvetica,sans-Serif" font-size="10.00">_sensor</text>
</a>
</g>
</g>
<!-- Node1&#45;&gt;Node35 -->
<g id="edge35_Node000001_Node000035" class="edge">
<title>Node1&#45;&gt;Node35</title>
<g id="a_edge35_Node000001_Node000035"><a xlink:title=" ">
<path fill="none" stroke="#63b8ff" d="M47.8,-765.63C52.26,-683.91 83.22,-145.43 128.5,-91 130.38,-88.74 132.47,-86.67 134.71,-84.79"/>
<polygon fill="#63b8ff" stroke="#63b8ff" points="136.52,-87.8 142.8,-79.27 132.57,-82.02 136.52,-87.8"/>
</a>
</g>
</g>
<!-- Node36 -->
<g id="Node000036" class="node">
<title>Node36</title>
<g id="a_Node000036"><a xlink:href="group__mpu6050__basic__driver.html#ga32550f71cd97313bee53f0a21b137154" target="_top" xlink:title="set the wake up frequency">
<polygon fill="white" stroke="#666666" points="269.38,-32 150.62,-32 150.62,0 269.38,0 269.38,-32"/>
<text xml:space="preserve" text-anchor="start" x="158.62" y="-18.5" font-family="Helvetica,sans-Serif" font-size="10.00">mpu6050_set_wake_up</text>
<text xml:space="preserve" text-anchor="middle" x="210" y="-6.5" font-family="Helvetica,sans-Serif" font-size="10.00">_frequency</text>
</a>
</g>
</g>
<!-- Node1&#45;&gt;Node36 -->
<g id="edge36_Node000001_Node000036" class="edge">
<title>Node1&#45;&gt;Node36</title>
<g id="a_edge36_Node000001_Node000036"><a xlink:title=" ">
<path fill="none" stroke="#63b8ff" d="M47.71,-765.69C51.62,-680.88 80.04,-99.73 128.5,-41 131.84,-36.95 135.82,-33.55 140.2,-30.69"/>
<polygon fill="#63b8ff" stroke="#63b8ff" points="141.84,-33.78 148.99,-25.97 138.53,-27.62 141.84,-33.78"/>
</a>
</g>
</g>
<!-- Node11&#45;&gt;Node5 -->
<g id="edge11_Node000011_Node000005" class="edge">
<title>Node11&#45;&gt;Node5</title>
<g id="a_edge11_Node000011_Node000005"><a xlink:title=" ">
<path fill="none" stroke="#63b8ff" d="M274.75,-1114.43C280.59,-1116.93 286.27,-1119.77 291.5,-1123 325.03,-1143.7 355.12,-1178.24 373.33,-1201.78"/>
<polygon fill="#63b8ff" stroke="#63b8ff" points="370.42,-1203.75 379.24,-1209.62 376.01,-1199.53 370.42,-1203.75"/>
</a>
</g>
</g>
</g>
</svg>
