<?xml version="1.0" encoding="UTF-8" standalone="no"?>
<!DOCTYPE svg PUBLIC "-//W3C//DTD SVG 1.1//EN"
 "http://www.w3.org/Graphics/SVG/1.1/DTD/svg11.dtd">
<!-- Generated by graphviz version 13.1.0 (20250701.0955)
 -->
<!-- Title: mpu6050_basic_init Pages: 1 -->
<svg width="475pt" height="1450pt"
 viewBox="0.00 0.00 475.00 1450.00" xmlns="http://www.w3.org/2000/svg" xmlns:xlink="http://www.w3.org/1999/xlink">
<g id="graph0" class="graph" transform="scale(1 1) rotate(0) translate(4 1446)">
<title>mpu6050_basic_init</title>
<!-- Node1 -->
<g id="Node000001" class="node">
<title>Node1</title>
<g id="a_Node000001"><a xlink:title="basic example init">
<polygon fill="#999999" stroke="#666666" points="102.25,-767 0,-767 0,-747 102.25,-747 102.25,-767"/>
<text xml:space="preserve" text-anchor="middle" x="51.12" y="-753.5" font-family="Helvetica,sans-Serif" font-size="10.00">mpu6050_basic_init</text>
</a>
</g>
</g>
<!-- Node2 -->
<g id="Node000002" class="node">
<title>Node2</title>
<g id="a_Node000002"><a xlink:href="group__mpu6050__basic__driver.html#gaebee2da4601d43462952ee2333291c3f" target="_top" xlink:title="close the chip">
<polygon fill="white" stroke="#666666" points="261.88,-1442 177.62,-1442 177.62,-1422 261.88,-1422 261.88,-1442"/>
<text xml:space="preserve" text-anchor="middle" x="219.75" y="-1428.5" font-family="Helvetica,sans-Serif" font-size="10.00">mpu6050_deinit</text>
</a>
</g>
</g>
<!-- Node1&#45;&gt;Node2 -->
<g id="edge1_Node000001_Node000002" class="edge">
<title>Node1&#45;&gt;Node2</title>
<g id="a_edge1_Node000001_Node000002"><a xlink:title=" ">
<path fill="none" stroke="#63b8ff" d="M51.94,-767.5C50.83,-843.78 47.76,-1312.86 138.25,-1413 145.61,-1421.14 155.75,-1426.12 166.36,-1429.09"/>
<polygon fill="#63b8ff" stroke="#63b8ff" points="165.49,-1432.48 176,-1431.19 166.98,-1425.64 165.49,-1432.48"/>
</a>
</g>
</g>
<!-- Node3 -->
<g id="Node000003" class="node">
<title>Node3</title>
<g id="a_Node000003"><a xlink:href="group__mpu6050__basic__driver.html#ga3fa7179bdd4783d5833f5773c4907467" target="_top" xlink:title="initialize the chip">
<polygon fill="white" stroke="#666666" points="256.62,-1404 182.88,-1404 182.88,-1384 256.62,-1384 256.62,-1404"/>
<text xml:space="preserve" text-anchor="middle" x="219.75" y="-1390.5" font-family="Helvetica,sans-Serif" font-size="10.00">mpu6050_init</text>
</a>
</g>
</g>
<!-- Node1&#45;&gt;Node3 -->
<g id="edge2_Node000001_Node000003" class="edge">
<title>Node1&#45;&gt;Node3</title>
<g id="a_edge2_Node000001_Node000003"><a xlink:title=" ">
<path fill="none" stroke="#63b8ff" d="M52.11,-767.22C52.18,-839.59 56.08,-1274.47 138.25,-1370 146.78,-1379.92 159.22,-1385.83 171.78,-1389.33"/>
<polygon fill="#63b8ff" stroke="#63b8ff" points="170.75,-1392.69 181.28,-1391.49 172.3,-1385.86 170.75,-1392.69"/>
</a>
</g>
</g>
<!-- Node4 -->
<g id="Node000004" class="node">
<title>Node4</title>
<g id="a_Node000004"><a xlink:href="group__mpu6050__interface__driver.html#ga766f67d9a4579de12f966228ea1250f3" target="_top" xlink:title="interface print format data">
<polygon fill="white" stroke="#666666" points="467.25,-1243 337.25,-1243 337.25,-1211 467.25,-1211 467.25,-1243"/>
<text xml:space="preserve" text-anchor="start" x="345.25" y="-1229.5" font-family="Helvetica,sans-Serif" font-size="10.00">mpu6050_interface_debug</text>
<text xml:space="preserve" text-anchor="middle" x="402.25" y="-1217.5" font-family="Helvetica,sans-Serif" font-size="10.00">_print</text>
</a>
</g>
</g>
<!-- Node1&#45;&gt;Node4 -->
<g id="edge3_Node000001_Node000004" class="edge">
<title>Node1&#45;&gt;Node4</title>
<g id="a_edge3_Node000001_Node000004"><a xlink:title=" ">
<path fill="none" stroke="#63b8ff" d="M51.93,-767.39C50.79,-839.03 48.06,-1259.21 138.25,-1337 193.11,-1384.31 235,-1366.31 301.25,-1337 339.97,-1319.87 370.13,-1279.53 386.8,-1252.75"/>
<polygon fill="#63b8ff" stroke="#63b8ff" points="389.59,-1254.9 391.74,-1244.53 383.59,-1251.3 389.59,-1254.9"/>
</a>
</g>
</g>
<!-- Node5 -->
<g id="Node000005" class="node">
<title>Node5</title>
<g id="a_Node000005"><a xlink:href="group__mpu6050__interface__driver.html#gaff78feee028c344ef7da403a23696b51" target="_top" xlink:title="interface delay ms">
<polygon fill="white" stroke="#666666" points="292.62,-1328 146.88,-1328 146.88,-1308 292.62,-1308 292.62,-1328"/>
<text xml:space="preserve" text-anchor="middle" x="219.75" y="-1314.5" font-family="Helvetica,sans-Serif" font-size="10.00">mpu6050_interface_delay_ms</text>
</a>
</g>
</g>
<!-- Node1&#45;&gt;Node5 -->
<g id="edge4_Node000001_Node000005" class="edge">
<title>Node1&#45;&gt;Node5</title>
<g id="a_edge4_Node000001_Node000005"><a xlink:title=" ">
<path fill="none" stroke="#63b8ff" d="M52.26,-767.37C53.33,-835.4 62.73,-1217.65 138.25,-1299 138.84,-1299.63 139.44,-1300.24 140.06,-1300.84"/>
<polygon fill="#63b8ff" stroke="#63b8ff" points="137.61,-1303.37 147.69,-1306.64 141.84,-1297.8 137.61,-1303.37"/>
</a>
</g>
</g>
<!-- Node6 -->
<g id="Node000006" class="node">
<title>Node6</title>
<g id="a_Node000006"><a xlink:href="group__mpu6050__interface__driver.html#ga4ad3030755a97f7067d958d34bfbdfe4" target="_top" xlink:title="interface iic bus deinit">
<polygon fill="white" stroke="#666666" points="276.5,-1290 163,-1290 163,-1258 276.5,-1258 276.5,-1290"/>
<text xml:space="preserve" text-anchor="start" x="171" y="-1276.5" font-family="Helvetica,sans-Serif" font-size="10.00">mpu6050_interface_iic</text>
<text xml:space="preserve" text-anchor="middle" x="219.75" y="-1264.5" font-family="Helvetica,sans-Serif" font-size="10.00">_deinit</text>
</a>
</g>
</g>
<!-- Node1&#45;&gt;Node6 -->
<g id="edge5_Node000001_Node000006" class="edge">
<title>Node1&#45;&gt;Node6</title>
<g id="a_edge5_Node000001_Node000006"><a xlink:title=" ">
<path fill="none" stroke="#63b8ff" d="M52.5,-767.17C55.06,-830.76 71.81,-1173.47 138.25,-1249 142.36,-1253.67 147.32,-1257.48 152.74,-1260.58"/>
<polygon fill="#63b8ff" stroke="#63b8ff" points="151.01,-1263.63 161.54,-1264.79 154.03,-1257.32 151.01,-1263.63"/>
</a>
</g>
</g>
<!-- Node7 -->
<g id="Node000007" class="node">
<title>Node7</title>
<g id="a_Node000007"><a xlink:href="group__mpu6050__interface__driver.html#gae82a00b862b6c02b4f76f5ccd3d820c6" target="_top" xlink:title="interface iic bus init">
<polygon fill="white" stroke="#666666" points="285.5,-1240 154,-1240 154,-1220 285.5,-1220 285.5,-1240"/>
<text xml:space="preserve" text-anchor="middle" x="219.75" y="-1226.5" font-family="Helvetica,sans-Serif" font-size="10.00">mpu6050_interface_iic_init</text>
</a>
</g>
</g>
<!-- Node1&#45;&gt;Node7 -->
<g id="edge6_Node000001_Node000007" class="edge">
<title>Node1&#45;&gt;Node7</title>
<g id="a_edge6_Node000001_Node000007"><a xlink:title=" ">
<path fill="none" stroke="#63b8ff" d="M52.6,-767.23C55.61,-828.26 74.2,-1144.04 138.25,-1211 140.02,-1212.85 141.94,-1214.54 143.98,-1216.08"/>
<polygon fill="#63b8ff" stroke="#63b8ff" points="141.89,-1218.91 152.26,-1221.1 145.52,-1212.92 141.89,-1218.91"/>
</a>
</g>
</g>
<!-- Node8 -->
<g id="Node000008" class="node">
<title>Node8</title>
<g id="a_Node000008"><a xlink:href="group__mpu6050__interface__driver.html#ga5ed51358859988d3b6168c1c34ff6571" target="_top" xlink:title="interface iic bus read">
<polygon fill="white" stroke="#666666" points="288.5,-1202 151,-1202 151,-1182 288.5,-1182 288.5,-1202"/>
<text xml:space="preserve" text-anchor="middle" x="219.75" y="-1188.5" font-family="Helvetica,sans-Serif" font-size="10.00">mpu6050_interface_iic_read</text>
</a>
</g>
</g>
<!-- Node1&#45;&gt;Node8 -->
<g id="edge7_Node000001_Node000008" class="edge">
<title>Node1&#45;&gt;Node8</title>
<g id="a_edge7_Node000001_Node000008"><a xlink:title=" ">
<path fill="none" stroke="#63b8ff" d="M52.81,-767.5C56.82,-826.11 79.24,-1112.33 138.25,-1173 139.26,-1174.04 140.32,-1175.03 141.42,-1175.97"/>
<polygon fill="#63b8ff" stroke="#63b8ff" points="139.09,-1178.61 149.32,-1181.38 143.04,-1172.84 139.09,-1178.61"/>
</a>
</g>
</g>
<!-- Node9 -->
<g id="Node000009" class="node">
<title>Node9</title>
<g id="a_Node000009"><a xlink:href="group__mpu6050__interface__driver.html#gaddddbfa804e2824445fea96c14e1b590" target="_top" xlink:title="interface iic bus write">
<polygon fill="white" stroke="#666666" points="276.5,-1164 163,-1164 163,-1132 276.5,-1132 276.5,-1164"/>
<text xml:space="preserve" text-anchor="start" x="171" y="-1150.5" font-family="Helvetica,sans-Serif" font-size="10.00">mpu6050_interface_iic</text>
<text xml:space="preserve" text-anchor="middle" x="219.75" y="-1138.5" font-family="Helvetica,sans-Serif" font-size="10.00">_write</text>
</a>
</g>
</g>
<!-- Node1&#45;&gt;Node9 -->
<g id="edge8_Node000001_Node000009" class="edge">
<title>Node1&#45;&gt;Node9</title>
<g id="a_edge8_Node000001_Node000009"><a xlink:title=" ">
<path fill="none" stroke="#63b8ff" d="M53.17,-767.22C58.83,-820.78 87.5,-1068.57 138.25,-1123 142.43,-1127.48 147.39,-1131.17 152.78,-1134.2"/>
<polygon fill="#63b8ff" stroke="#63b8ff" points="150.94,-1137.2 161.47,-1138.32 153.94,-1130.87 150.94,-1137.2"/>
</a>
</g>
</g>
<!-- Node10 -->
<g id="Node000010" class="node">
<title>Node10</title>
<g id="a_Node000010"><a xlink:href="group__mpu6050__interface__driver.html#gaf09d98bce66f648d644cfe93f3ec5fe7" target="_top" xlink:title="interface receive callback">
<polygon fill="white" stroke="#666666" points="287.38,-1114 152.12,-1114 152.12,-1082 287.38,-1082 287.38,-1114"/>
<text xml:space="preserve" text-anchor="start" x="160.12" y="-1100.5" font-family="Helvetica,sans-Serif" font-size="10.00">mpu6050_interface_receive</text>
<text xml:space="preserve" text-anchor="middle" x="219.75" y="-1088.5" font-family="Helvetica,sans-Serif" font-size="10.00">_callback</text>
</a>
</g>
</g>
<!-- Node1&#45;&gt;Node10 -->
<g id="edge9_Node000001_Node000010" class="edge">
<title>Node1&#45;&gt;Node10</title>
<g id="a_edge9_Node000001_Node000010"><a xlink:title=" ">
<path fill="none" stroke="#63b8ff" d="M51.64,-767.44C50.19,-811.24 50.57,-982.19 138.25,-1073 139.61,-1074.41 141.05,-1075.74 142.56,-1077"/>
<polygon fill="#63b8ff" stroke="#63b8ff" points="140.37,-1079.74 150.59,-1082.55 144.35,-1073.99 140.37,-1079.74"/>
</a>
</g>
</g>
<!-- Node11 -->
<g id="Node000011" class="node">
<title>Node11</title>
<g id="a_Node000011"><a xlink:href="group__mpu6050__basic__driver.html#ga447aae606d0224fc18d75b5e34031ac4" target="_top" xlink:title="set the accelerometer range">
<polygon fill="white" stroke="#666666" points="290.38,-1064 149.12,-1064 149.12,-1032 290.38,-1032 290.38,-1064"/>
<text xml:space="preserve" text-anchor="start" x="157.12" y="-1050.5" font-family="Helvetica,sans-Serif" font-size="10.00">mpu6050_set_accelerometer</text>
<text xml:space="preserve" text-anchor="middle" x="219.75" y="-1038.5" font-family="Helvetica,sans-Serif" font-size="10.00">_range</text>
</a>
</g>
</g>
<!-- Node1&#45;&gt;Node11 -->
<g id="edge11_Node000001_Node000011" class="edge">
<title>Node1&#45;&gt;Node11</title>
<g id="a_edge11_Node000001_Node000011"><a xlink:title=" ">
<path fill="none" stroke="#63b8ff" d="M52.26,-767.38C53.36,-806.74 62.63,-948.28 138.25,-1023 138.87,-1023.62 139.51,-1024.22 140.17,-1024.81"/>
<polygon fill="#63b8ff" stroke="#63b8ff" points="138.03,-1027.58 148.15,-1030.73 142.2,-1021.96 138.03,-1027.58"/>
</a>
</g>
</g>
<!-- Node12 -->
<g id="Node000012" class="node">
<title>Node12</title>
<g id="a_Node000012"><a xlink:href="group__mpu6050__basic__driver.html#gab3cee8f1703623eac797d75238326172" target="_top" xlink:title="set the accelerometer test">
<polygon fill="white" stroke="#666666" points="301.25,-1014 138.25,-1014 138.25,-994 301.25,-994 301.25,-1014"/>
<text xml:space="preserve" text-anchor="middle" x="219.75" y="-1000.5" font-family="Helvetica,sans-Serif" font-size="10.00">mpu6050_set_accelerometer_test</text>
</a>
</g>
</g>
<!-- Node1&#45;&gt;Node12 -->
<g id="edge12_Node000001_Node000012" class="edge">
<title>Node1&#45;&gt;Node12</title>
<g id="a_edge12_Node000001_Node000012"><a xlink:title=" ">
<path fill="none" stroke="#63b8ff" d="M52.71,-767.04C55.35,-802.72 69.26,-924.41 138.25,-985 139.34,-985.96 140.47,-986.87 141.64,-987.74"/>
<polygon fill="#63b8ff" stroke="#63b8ff" points="139.54,-990.56 149.89,-992.79 143.19,-984.59 139.54,-990.56"/>
</a>
</g>
</g>
<!-- Node13 -->
<g id="Node000013" class="node">
<title>Node13</title>
<g id="a_Node000013"><a xlink:href="group__mpu6050__basic__driver.html#ga6df42dd4efb2b614d2ee3db5e5b3b9c4" target="_top" xlink:title="set the chip address pin">
<polygon fill="white" stroke="#666666" points="278,-976 161.5,-976 161.5,-956 278,-956 278,-976"/>
<text xml:space="preserve" text-anchor="middle" x="219.75" y="-962.5" font-family="Helvetica,sans-Serif" font-size="10.00">mpu6050_set_addr_pin</text>
</a>
</g>
</g>
<!-- Node1&#45;&gt;Node13 -->
<g id="edge13_Node000001_Node000013" class="edge">
<title>Node1&#45;&gt;Node13</title>
<g id="a_edge13_Node000001_Node000013"><a xlink:title=" ">
<path fill="none" stroke="#63b8ff" d="M53.56,-767.13C58.62,-799 78.68,-897.99 138.25,-947 141.99,-950.08 146.15,-952.68 150.54,-954.87"/>
<polygon fill="#63b8ff" stroke="#63b8ff" points="149.17,-958.09 159.75,-958.69 151.85,-951.62 149.17,-958.09"/>
</a>
</g>
</g>
<!-- Node14 -->
<g id="Node000014" class="node">
<title>Node14</title>
<g id="a_Node000014"><a xlink:href="group__mpu6050__basic__driver.html#gad64a954b8e0a1a4512fa7a72dace6299" target="_top" xlink:title="set the chip clock source">
<polygon fill="white" stroke="#666666" points="288.5,-938 151,-938 151,-918 288.5,-918 288.5,-938"/>
<text xml:space="preserve" text-anchor="middle" x="219.75" y="-924.5" font-family="Helvetica,sans-Serif" font-size="10.00">mpu6050_set_clock_source</text>
</a>
</g>
</g>
<!-- Node1&#45;&gt;Node14 -->
<g id="edge14_Node000001_Node000014" class="edge">
<title>Node1&#45;&gt;Node14</title>
<g id="a_edge14_Node000001_Node000014"><a xlink:title=" ">
<path fill="none" stroke="#63b8ff" d="M54.86,-767.43C62.71,-795.2 88.02,-871.33 138.25,-909 139.83,-910.18 141.47,-911.3 143.16,-912.34"/>
<polygon fill="#63b8ff" stroke="#63b8ff" points="141.51,-915.43 152,-916.91 144.73,-909.21 141.51,-915.43"/>
</a>
</g>
</g>
<!-- Node15 -->
<g id="Node000015" class="node">
<title>Node15</title>
<g id="a_Node000015"><a xlink:href="group__mpu6050__basic__driver.html#ga864c1ec199e927bfb61a530c67abe322" target="_top" xlink:title="enable or disable the cycle wake up mode">
<polygon fill="white" stroke="#666666" points="293.38,-900 146.12,-900 146.12,-880 293.38,-880 293.38,-900"/>
<text xml:space="preserve" text-anchor="middle" x="219.75" y="-886.5" font-family="Helvetica,sans-Serif" font-size="10.00">mpu6050_set_cycle_wake_up</text>
</a>
</g>
</g>
<!-- Node1&#45;&gt;Node15 -->
<g id="edge15_Node000001_Node000015" class="edge">
<title>Node1&#45;&gt;Node15</title>
<g id="a_edge15_Node000001_Node000015"><a xlink:title=" ">
<path fill="none" stroke="#63b8ff" d="M56.88,-767.43C67.79,-790.11 96.9,-844.04 138.25,-871 140.4,-872.4 142.64,-873.7 144.95,-874.9"/>
<polygon fill="#63b8ff" stroke="#63b8ff" points="143.52,-878.09 154.07,-878.97 146.37,-871.7 143.52,-878.09"/>
</a>
</g>
</g>
<!-- Node16 -->
<g id="Node000016" class="node">
<title>Node16</title>
<g id="a_Node000016"><a xlink:href="group__mpu6050__basic__driver.html#gab40a10d0023ee96781e4d4b27ebeb81b" target="_top" xlink:title="set the extern sync type">
<polygon fill="white" stroke="#666666" points="286.25,-862 153.25,-862 153.25,-842 286.25,-842 286.25,-862"/>
<text xml:space="preserve" text-anchor="middle" x="219.75" y="-848.5" font-family="Helvetica,sans-Serif" font-size="10.00">mpu6050_set_extern_sync</text>
</a>
</g>
</g>
<!-- Node1&#45;&gt;Node16 -->
<g id="edge16_Node000001_Node000016" class="edge">
<title>Node1&#45;&gt;Node16</title>
<g id="a_edge16_Node000001_Node000016"><a xlink:title=" ">
<path fill="none" stroke="#63b8ff" d="M60.76,-767.38C75.1,-783.91 105.48,-816.05 138.25,-833 141.67,-834.77 145.26,-836.38 148.94,-837.84"/>
<polygon fill="#63b8ff" stroke="#63b8ff" points="147.48,-841.03 158.07,-841.06 149.81,-834.43 147.48,-841.03"/>
</a>
</g>
</g>
<!-- Node17 -->
<g id="Node000017" class="node">
<title>Node17</title>
<g id="a_Node000017"><a xlink:href="group__mpu6050__basic__driver.html#gabe6ed7483f2585da9e14015220c5873f" target="_top" xlink:title="enable or disable fifo">
<polygon fill="white" stroke="#666666" points="266.38,-824 173.12,-824 173.12,-804 266.38,-804 266.38,-824"/>
<text xml:space="preserve" text-anchor="middle" x="219.75" y="-810.5" font-family="Helvetica,sans-Serif" font-size="10.00">mpu6050_set_fifo</text>
</a>
</g>
</g>
<!-- Node1&#45;&gt;Node17 -->
<g id="edge17_Node000001_Node000017" class="edge">
<title>Node1&#45;&gt;Node17</title>
<g id="a_edge17_Node000001_Node000017"><a xlink:title=" ">
<path fill="none" stroke="#63b8ff" d="M72.93,-767.48C90.12,-775.81 115.32,-787.31 138.25,-795 145.75,-797.51 153.74,-799.83 161.67,-801.91"/>
<polygon fill="#63b8ff" stroke="#63b8ff" points="160.77,-805.29 171.32,-804.32 162.47,-798.5 160.77,-805.29"/>
</a>
</g>
</g>
<!-- Node18 -->
<g id="Node000018" class="node">
<title>Node18</title>
<g id="a_Node000018"><a xlink:href="group__mpu6050__basic__driver.html#ga73bfc2157b7710eaf126097ca59facb4" target="_top" xlink:title="enable or disable the fifo function">
<polygon fill="white" stroke="#666666" points="283.25,-786 156.25,-786 156.25,-766 283.25,-766 283.25,-786"/>
<text xml:space="preserve" text-anchor="middle" x="219.75" y="-772.5" font-family="Helvetica,sans-Serif" font-size="10.00">mpu6050_set_fifo_enable</text>
</a>
</g>
</g>
<!-- Node1&#45;&gt;Node18 -->
<g id="edge18_Node000001_Node000018" class="edge">
<title>Node1&#45;&gt;Node18</title>
<g id="a_edge18_Node000001_Node000018"><a xlink:title=" ">
<path fill="none" stroke="#63b8ff" d="M102.57,-762.75C115.8,-764.26 130.34,-765.92 144.53,-767.54"/>
<polygon fill="#63b8ff" stroke="#63b8ff" points="143.96,-770.99 154.29,-768.65 144.75,-764.04 143.96,-770.99"/>
</a>
</g>
</g>
<!-- Node19 -->
<g id="Node000019" class="node">
<title>Node19</title>
<g id="a_Node000019"><a xlink:href="group__mpu6050__basic__driver.html#gae2ea1c1863d0757f970256d5ad52de7a" target="_top" xlink:title="enable or disable the fsync interrupt">
<polygon fill="white" stroke="#666666" points="291.88,-748 147.62,-748 147.62,-728 291.88,-728 291.88,-748"/>
<text xml:space="preserve" text-anchor="middle" x="219.75" y="-734.5" font-family="Helvetica,sans-Serif" font-size="10.00">mpu6050_set_fsync_interrupt</text>
</a>
</g>
</g>
<!-- Node1&#45;&gt;Node19 -->
<g id="edge19_Node000001_Node000019" class="edge">
<title>Node1&#45;&gt;Node19</title>
<g id="a_edge19_Node000001_Node000019"><a xlink:title=" ">
<path fill="none" stroke="#63b8ff" d="M102.57,-751.25C113.13,-750.04 124.53,-748.74 135.92,-747.45"/>
<polygon fill="#63b8ff" stroke="#63b8ff" points="136.23,-750.93 145.77,-746.32 135.43,-743.98 136.23,-750.93"/>
</a>
</g>
</g>
<!-- Node20 -->
<g id="Node000020" class="node">
<title>Node20</title>
<g id="a_Node000020"><a xlink:href="group__mpu6050__basic__driver.html#gaf7eae49db5045842084aa79bc474b9b2" target="_top" xlink:title="set the fsync interrupt level">
<polygon fill="white" stroke="#666666" points="291.88,-710 147.62,-710 147.62,-678 291.88,-678 291.88,-710"/>
<text xml:space="preserve" text-anchor="start" x="155.62" y="-696.5" font-family="Helvetica,sans-Serif" font-size="10.00">mpu6050_set_fsync_interrupt</text>
<text xml:space="preserve" text-anchor="middle" x="219.75" y="-684.5" font-family="Helvetica,sans-Serif" font-size="10.00">_level</text>
</a>
</g>
</g>
<!-- Node1&#45;&gt;Node20 -->
<g id="edge20_Node000001_Node000020" class="edge">
<title>Node1&#45;&gt;Node20</title>
<g id="a_edge20_Node000001_Node000020"><a xlink:title=" ">
<path fill="none" stroke="#63b8ff" d="M73.79,-746.62C91.03,-738.55 115.9,-727.37 138.25,-719 142.85,-717.28 147.62,-715.58 152.44,-713.93"/>
<polygon fill="#63b8ff" stroke="#63b8ff" points="153.23,-717.36 161.6,-710.87 151.01,-710.72 153.23,-717.36"/>
</a>
</g>
</g>
<!-- Node21 -->
<g id="Node000021" class="node">
<title>Node21</title>
<g id="a_Node000021"><a xlink:href="group__mpu6050__basic__driver.html#ga6b5f9a7d2f0ad23c7ea84275e432fa80" target="_top" xlink:title="set the gyroscope range">
<polygon fill="white" stroke="#666666" points="282.12,-660 157.38,-660 157.38,-628 282.12,-628 282.12,-660"/>
<text xml:space="preserve" text-anchor="start" x="165.38" y="-646.5" font-family="Helvetica,sans-Serif" font-size="10.00">mpu6050_set_gyroscope</text>
<text xml:space="preserve" text-anchor="middle" x="219.75" y="-634.5" font-family="Helvetica,sans-Serif" font-size="10.00">_range</text>
</a>
</g>
</g>
<!-- Node1&#45;&gt;Node21 -->
<g id="edge21_Node000001_Node000021" class="edge">
<title>Node1&#45;&gt;Node21</title>
<g id="a_edge21_Node000001_Node000021"><a xlink:title=" ">
<path fill="none" stroke="#63b8ff" d="M59.44,-746.69C72.94,-728.4 103.59,-690.18 138.25,-669 141,-667.32 143.87,-665.74 146.83,-664.26"/>
<polygon fill="#63b8ff" stroke="#63b8ff" points="148.08,-667.54 155.75,-660.23 145.2,-661.16 148.08,-667.54"/>
</a>
</g>
</g>
<!-- Node22 -->
<g id="Node000022" class="node">
<title>Node22</title>
<g id="a_Node000022"><a xlink:href="group__mpu6050__basic__driver.html#ga820d51a44799f0531ff73dd3a119d2cf" target="_top" xlink:title="set the gyroscope test">
<polygon fill="white" stroke="#666666" points="293,-610 146.5,-610 146.5,-590 293,-590 293,-610"/>
<text xml:space="preserve" text-anchor="middle" x="219.75" y="-596.5" font-family="Helvetica,sans-Serif" font-size="10.00">mpu6050_set_gyroscope_test</text>
</a>
</g>
</g>
<!-- Node1&#45;&gt;Node22 -->
<g id="edge22_Node000001_Node000022" class="edge">
<title>Node1&#45;&gt;Node22</title>
<g id="a_edge22_Node000001_Node000022"><a xlink:title=" ">
<path fill="none" stroke="#63b8ff" d="M55.42,-746.77C64.28,-720.94 91.21,-652.75 138.25,-619 140.04,-617.71 141.91,-616.51 143.84,-615.39"/>
<polygon fill="#63b8ff" stroke="#63b8ff" points="145.12,-618.66 152.55,-611.1 142.03,-612.38 145.12,-618.66"/>
</a>
</g>
</g>
<!-- Node23 -->
<g id="Node000023" class="node">
<title>Node23</title>
<g id="a_Node000023"><a xlink:href="group__mpu6050__basic__driver.html#ga7ff2e56ada9011115ba08a3ed4218fae" target="_top" xlink:title="enable or disable the iic bypass">
<polygon fill="white" stroke="#666666" points="282.88,-572 156.62,-572 156.62,-552 282.88,-552 282.88,-572"/>
<text xml:space="preserve" text-anchor="middle" x="219.75" y="-558.5" font-family="Helvetica,sans-Serif" font-size="10.00">mpu6050_set_iic_bypass</text>
</a>
</g>
</g>
<!-- Node1&#45;&gt;Node23 -->
<g id="edge23_Node000001_Node000023" class="edge">
<title>Node1&#45;&gt;Node23</title>
<g id="a_edge23_Node000001_Node000023"><a xlink:title=" ">
<path fill="none" stroke="#63b8ff" d="M53.97,-746.75C60.02,-716.31 82.16,-625.78 138.25,-581 140.69,-579.05 143.3,-577.3 146.03,-575.72"/>
<polygon fill="#63b8ff" stroke="#63b8ff" points="147.5,-578.89 154.98,-571.39 144.46,-572.59 147.5,-578.89"/>
</a>
</g>
</g>
<!-- Node24 -->
<g id="Node000024" class="node">
<title>Node24</title>
<g id="a_Node000024"><a xlink:href="group__mpu6050__basic__driver.html#gaa35e9a70bdae6b95305c7fa3e95aaeda" target="_top" xlink:title="enable or disable the iic master mode">
<polygon fill="white" stroke="#666666" points="282.12,-534 157.38,-534 157.38,-514 282.12,-514 282.12,-534"/>
<text xml:space="preserve" text-anchor="middle" x="219.75" y="-520.5" font-family="Helvetica,sans-Serif" font-size="10.00">mpu6050_set_iic_master</text>
</a>
</g>
</g>
<!-- Node1&#45;&gt;Node24 -->
<g id="edge24_Node000001_Node000024" class="edge">
<title>Node1&#45;&gt;Node24</title>
<g id="a_edge24_Node000001_Node000024"><a xlink:title=" ">
<path fill="none" stroke="#63b8ff" d="M53.02,-746.61C56.59,-711.92 72.95,-599.12 138.25,-543 140.94,-540.69 143.86,-538.64 146.94,-536.84"/>
<polygon fill="#63b8ff" stroke="#63b8ff" points="148.41,-540.02 155.88,-532.51 145.36,-533.72 148.41,-540.02"/>
</a>
</g>
</g>
<!-- Node25 -->
<g id="Node000025" class="node">
<title>Node25</title>
<g id="a_Node000025"><a xlink:href="group__mpu6050__basic__driver.html#ga7fcdea5bc0936e5b228ac39d9612f5f9" target="_top" xlink:title="enable or disable the interrupt">
<polygon fill="white" stroke="#666666" points="277.25,-496 162.25,-496 162.25,-476 277.25,-476 277.25,-496"/>
<text xml:space="preserve" text-anchor="middle" x="219.75" y="-482.5" font-family="Helvetica,sans-Serif" font-size="10.00">mpu6050_set_interrupt</text>
</a>
</g>
</g>
<!-- Node1&#45;&gt;Node25 -->
<g id="edge25_Node000001_Node000025" class="edge">
<title>Node1&#45;&gt;Node25</title>
<g id="a_edge25_Node000001_Node000025"><a xlink:title=" ">
<path fill="none" stroke="#63b8ff" d="M52.31,-746.73C53.59,-708.46 63.42,-572.87 138.25,-505 142.23,-501.39 146.76,-498.43 151.61,-496.01"/>
<polygon fill="#63b8ff" stroke="#63b8ff" points="152.6,-499.39 160.5,-492.33 149.93,-492.92 152.6,-499.39"/>
</a>
</g>
</g>
<!-- Node26 -->
<g id="Node000026" class="node">
<title>Node26</title>
<g id="a_Node000026"><a xlink:href="group__mpu6050__basic__driver.html#gaa76f7112fae3595d886b3c43a120c1d3" target="_top" xlink:title="enable or disable the interrupt latch">
<polygon fill="white" stroke="#666666" points="277.25,-458 162.25,-458 162.25,-426 277.25,-426 277.25,-458"/>
<text xml:space="preserve" text-anchor="start" x="170.25" y="-444.5" font-family="Helvetica,sans-Serif" font-size="10.00">mpu6050_set_interrupt</text>
<text xml:space="preserve" text-anchor="middle" x="219.75" y="-432.5" font-family="Helvetica,sans-Serif" font-size="10.00">_latch</text>
</a>
</g>
</g>
<!-- Node1&#45;&gt;Node26 -->
<g id="edge26_Node000001_Node000026" class="edge">
<title>Node1&#45;&gt;Node26</title>
<g id="a_edge26_Node000001_Node000026"><a xlink:title=" ">
<path fill="none" stroke="#63b8ff" d="M51.94,-746.57C51.79,-705 56.87,-549.4 138.25,-467 142.26,-462.94 146.92,-459.54 151.93,-456.68"/>
<polygon fill="#63b8ff" stroke="#63b8ff" points="153.09,-460.01 160.57,-452.51 150.04,-453.71 153.09,-460.01"/>
</a>
</g>
</g>
<!-- Node27 -->
<g id="Node000027" class="node">
<title>Node27</title>
<g id="a_Node000027"><a xlink:href="group__mpu6050__basic__driver.html#gabf093821c0f94024bb248d41d67fd857" target="_top" xlink:title="set the interrupt level">
<polygon fill="white" stroke="#666666" points="277.25,-408 162.25,-408 162.25,-376 277.25,-376 277.25,-408"/>
<text xml:space="preserve" text-anchor="start" x="170.25" y="-394.5" font-family="Helvetica,sans-Serif" font-size="10.00">mpu6050_set_interrupt</text>
<text xml:space="preserve" text-anchor="middle" x="219.75" y="-382.5" font-family="Helvetica,sans-Serif" font-size="10.00">_level</text>
</a>
</g>
</g>
<!-- Node1&#45;&gt;Node27 -->
<g id="edge27_Node000001_Node000027" class="edge">
<title>Node1&#45;&gt;Node27</title>
<g id="a_edge27_Node000001_Node000027"><a xlink:title=" ">
<path fill="none" stroke="#63b8ff" d="M53.36,-746.83C59.76,-695.69 90.69,-467.15 138.25,-417 142.24,-412.79 146.92,-409.29 151.98,-406.37"/>
<polygon fill="#63b8ff" stroke="#63b8ff" points="153.29,-409.63 160.75,-402.12 150.23,-403.34 153.29,-409.63"/>
</a>
</g>
</g>
<!-- Node28 -->
<g id="Node000028" class="node">
<title>Node28</title>
<g id="a_Node000028"><a xlink:href="group__mpu6050__basic__driver.html#ga8b41f9600b91d7660bfb99b95ad8ada4" target="_top" xlink:title="set the interrupt pin type">
<polygon fill="white" stroke="#666666" points="277.25,-358 162.25,-358 162.25,-326 277.25,-326 277.25,-358"/>
<text xml:space="preserve" text-anchor="start" x="170.25" y="-344.5" font-family="Helvetica,sans-Serif" font-size="10.00">mpu6050_set_interrupt</text>
<text xml:space="preserve" text-anchor="middle" x="219.75" y="-332.5" font-family="Helvetica,sans-Serif" font-size="10.00">_pin_type</text>
</a>
</g>
</g>
<!-- Node1&#45;&gt;Node28 -->
<g id="edge28_Node000001_Node000028" class="edge">
<title>Node1&#45;&gt;Node28</title>
<g id="a_edge28_Node000001_Node000028"><a xlink:title=" ">
<path fill="none" stroke="#63b8ff" d="M53,-746.85C58,-691.4 84.51,-425.44 138.25,-367 142.17,-362.73 146.81,-359.19 151.85,-356.24"/>
<polygon fill="#63b8ff" stroke="#63b8ff" points="153.14,-359.51 160.58,-351.96 150.06,-353.22 153.14,-359.51"/>
</a>
</g>
</g>
<!-- Node29 -->
<g id="Node000029" class="node">
<title>Node29</title>
<g id="a_Node000029"><a xlink:href="group__mpu6050__basic__driver.html#ga71d2c1d97d63badf346d3d74ec249722" target="_top" xlink:title="enable or disable the interrupt reading clear">
<polygon fill="white" stroke="#666666" points="277.25,-308 162.25,-308 162.25,-276 277.25,-276 277.25,-308"/>
<text xml:space="preserve" text-anchor="start" x="170.25" y="-294.5" font-family="Helvetica,sans-Serif" font-size="10.00">mpu6050_set_interrupt</text>
<text xml:space="preserve" text-anchor="middle" x="219.75" y="-282.5" font-family="Helvetica,sans-Serif" font-size="10.00">_read_clear</text>
</a>
</g>
</g>
<!-- Node1&#45;&gt;Node29 -->
<g id="edge29_Node000001_Node000029" class="edge">
<title>Node1&#45;&gt;Node29</title>
<g id="a_edge29_Node000001_Node000029"><a xlink:title=" ">
<path fill="none" stroke="#63b8ff" d="M52.73,-746.76C56.49,-687.01 78.33,-383.76 138.25,-317 142.12,-312.69 146.72,-309.11 151.73,-306.14"/>
<polygon fill="#63b8ff" stroke="#63b8ff" points="153.03,-309.41 160.44,-301.83 149.92,-303.13 153.03,-309.41"/>
</a>
</g>
</g>
<!-- Node30 -->
<g id="Node000030" class="node">
<title>Node30</title>
<g id="a_Node000030"><a xlink:href="group__mpu6050__basic__driver.html#gae64ced53188b4b8a7ca64d1bc3318e17" target="_top" xlink:title="set the low pass filter">
<polygon fill="white" stroke="#666666" points="280.25,-258 159.25,-258 159.25,-226 280.25,-226 280.25,-258"/>
<text xml:space="preserve" text-anchor="start" x="167.25" y="-244.5" font-family="Helvetica,sans-Serif" font-size="10.00">mpu6050_set_low_pass</text>
<text xml:space="preserve" text-anchor="middle" x="219.75" y="-232.5" font-family="Helvetica,sans-Serif" font-size="10.00">_filter</text>
</a>
</g>
</g>
<!-- Node1&#45;&gt;Node30 -->
<g id="edge30_Node000001_Node000030" class="edge">
<title>Node1&#45;&gt;Node30</title>
<g id="a_edge30_Node000001_Node000030"><a xlink:title=" ">
<path fill="none" stroke="#63b8ff" d="M52.51,-746.87C55.1,-683.53 72.05,-342.2 138.25,-267 141.4,-263.42 145.06,-260.34 149.04,-257.7"/>
<polygon fill="#63b8ff" stroke="#63b8ff" points="150.45,-260.92 157.51,-253.03 147.07,-254.79 150.45,-260.92"/>
</a>
</g>
</g>
<!-- Node31 -->
<g id="Node000031" class="node">
<title>Node31</title>
<g id="a_Node000031"><a xlink:href="group__mpu6050__basic__driver.html#ga6780b944f4cbbae54ae68074a4bf1484" target="_top" xlink:title="set the sample rate divider">
<polygon fill="white" stroke="#666666" points="275.38,-208 164.12,-208 164.12,-176 275.38,-176 275.38,-208"/>
<text xml:space="preserve" text-anchor="start" x="172.12" y="-194.5" font-family="Helvetica,sans-Serif" font-size="10.00">mpu6050_set_sample</text>
<text xml:space="preserve" text-anchor="middle" x="219.75" y="-182.5" font-family="Helvetica,sans-Serif" font-size="10.00">_rate_divider</text>
</a>
</g>
</g>
<!-- Node1&#45;&gt;Node31 -->
<g id="edge31_Node000001_Node000031" class="edge">
<title>Node1&#45;&gt;Node31</title>
<g id="a_edge31_Node000001_Node000031"><a xlink:title=" ">
<path fill="none" stroke="#63b8ff" d="M52.33,-746.73C53.89,-679.35 65.83,-300.59 138.25,-217 142.55,-212.04 147.81,-208.05 153.57,-204.84"/>
<polygon fill="#63b8ff" stroke="#63b8ff" points="154.68,-208.19 162.27,-200.79 151.72,-201.84 154.68,-208.19"/>
</a>
</g>
</g>
<!-- Node32 -->
<g id="Node000032" class="node">
<title>Node32</title>
<g id="a_Node000032"><a xlink:href="group__mpu6050__basic__driver.html#gab7da297ba4960fdaffac2b57025bcafc" target="_top" xlink:title="enable or disable the sleep mode">
<polygon fill="white" stroke="#666666" points="271.25,-158 168.25,-158 168.25,-138 271.25,-138 271.25,-158"/>
<text xml:space="preserve" text-anchor="middle" x="219.75" y="-144.5" font-family="Helvetica,sans-Serif" font-size="10.00">mpu6050_set_sleep</text>
</a>
</g>
</g>
<!-- Node1&#45;&gt;Node32 -->
<g id="edge32_Node000001_Node000032" class="edge">
<title>Node1&#45;&gt;Node32</title>
<g id="a_edge32_Node000001_Node000032"><a xlink:title=" ">
<path fill="none" stroke="#63b8ff" d="M52.11,-746.66C52.22,-675.3 56.41,-256.28 138.25,-167 143.47,-161.31 150.04,-157.17 157.17,-154.19"/>
<polygon fill="#63b8ff" stroke="#63b8ff" points="158.12,-157.56 166.49,-151.07 155.9,-150.92 158.12,-157.56"/>
</a>
</g>
</g>
<!-- Node33 -->
<g id="Node000033" class="node">
<title>Node33</title>
<g id="a_Node000033"><a xlink:href="group__mpu6050__basic__driver.html#ga4a3a787d582ff6d4809d76920c61f541" target="_top" xlink:title="set source into standby mode">
<polygon fill="white" stroke="#666666" points="291.5,-120 148,-120 148,-100 291.5,-100 291.5,-120"/>
<text xml:space="preserve" text-anchor="middle" x="219.75" y="-106.5" font-family="Helvetica,sans-Serif" font-size="10.00">mpu6050_set_standby_mode</text>
</a>
</g>
</g>
<!-- Node1&#45;&gt;Node33 -->
<g id="edge33_Node000001_Node000033" class="edge">
<title>Node1&#45;&gt;Node33</title>
<g id="a_edge33_Node000001_Node000033"><a xlink:title=" ">
<path fill="none" stroke="#63b8ff" d="M52.01,-746.95C51.41,-673.89 51.28,-224.69 138.25,-129 138.73,-128.47 139.23,-127.95 139.73,-127.45"/>
<polygon fill="#63b8ff" stroke="#63b8ff" points="141.88,-130.21 147.61,-121.3 137.58,-124.69 141.88,-130.21"/>
</a>
</g>
</g>
<!-- Node34 -->
<g id="Node000034" class="node">
<title>Node34</title>
<g id="a_Node000034"><a xlink:href="group__mpu6050__basic__driver.html#gaa75bd4abd828a6333a6c73c645905807" target="_top" xlink:title="enable or disable the temperature sensor">
<polygon fill="white" stroke="#666666" points="285.5,-82 154,-82 154,-50 285.5,-50 285.5,-82"/>
<text xml:space="preserve" text-anchor="start" x="162" y="-68.5" font-family="Helvetica,sans-Serif" font-size="10.00">mpu6050_set_temperature</text>
<text xml:space="preserve" text-anchor="middle" x="219.75" y="-56.5" font-family="Helvetica,sans-Serif" font-size="10.00">_sensor</text>
</a>
</g>
</g>
<!-- Node1&#45;&gt;Node34 -->
<g id="edge34_Node000001_Node000034" class="edge">
<title>Node1&#45;&gt;Node34</title>
<g id="a_edge34_Node000001_Node000034"><a xlink:title=" ">
<path fill="none" stroke="#63b8ff" d="M51.99,-746.89C51.22,-671.44 49.9,-196.07 138.25,-91 140.15,-88.75 142.24,-86.69 144.49,-84.82"/>
<polygon fill="#63b8ff" stroke="#63b8ff" points="146.29,-87.83 152.61,-79.32 142.37,-82.03 146.29,-87.83"/>
</a>
</g>
</g>
<!-- Node35 -->
<g id="Node000035" class="node">
<title>Node35</title>
<g id="a_Node000035"><a xlink:href="group__mpu6050__basic__driver.html#ga32550f71cd97313bee53f0a21b137154" target="_top" xlink:title="set the wake up frequency">
<polygon fill="white" stroke="#666666" points="279.12,-32 160.38,-32 160.38,0 279.12,0 279.12,-32"/>
<text xml:space="preserve" text-anchor="start" x="168.38" y="-18.5" font-family="Helvetica,sans-Serif" font-size="10.00">mpu6050_set_wake_up</text>
<text xml:space="preserve" text-anchor="middle" x="219.75" y="-6.5" font-family="Helvetica,sans-Serif" font-size="10.00">_frequency</text>
</a>
</g>
</g>
<!-- Node1&#45;&gt;Node35 -->
<g id="edge35_Node000001_Node000035" class="edge">
<title>Node1&#45;&gt;Node35</title>
<g id="a_edge35_Node000001_Node000035"><a xlink:title=" ">
<path fill="none" stroke="#63b8ff" d="M51.89,-746.65C50.28,-667.23 43.68,-154.5 138.25,-41 141.61,-36.97 145.6,-33.58 149.99,-30.73"/>
<polygon fill="#63b8ff" stroke="#63b8ff" points="151.63,-33.82 158.8,-26.02 148.33,-27.65 151.63,-33.82"/>
</a>
</g>
</g>
<!-- Node10&#45;&gt;Node4 -->
<g id="edge10_Node000010_Node000004" class="edge">
<title>Node10&#45;&gt;Node4</title>
<g id="a_edge10_Node000010_Node000004"><a xlink:title=" ">
<path fill="none" stroke="#63b8ff" d="M284.5,-1114.43C290.34,-1116.93 296.02,-1119.77 301.25,-1123 334.78,-1143.7 364.87,-1178.24 383.08,-1201.78"/>
<polygon fill="#63b8ff" stroke="#63b8ff" points="380.17,-1203.75 388.99,-1209.62 385.76,-1199.53 380.17,-1203.75"/>
</a>
</g>
</g>
</g>
</svg>
